<svg aria-hidden="true" style="position: absolute; width: 0; height: 0; overflow: hidden;" version="1.1" xmlns="http://www.w3.org/2000/svg" xmlns:xlink="http://www.w3.org/1999/xlink">
<defs>
<symbol id="icon-location" viewBox="0 0 20 20">
<path d="M10 20s-7-9.13-7-13c0-3.866 3.134-7 7-7s7 3.134 7 7v0c0 3.87-7 13-7 13zM10 9c1.105 0 2-0.895 2-2s-0.895-2-2-2v0c-1.105 0-2 0.895-2 2s0.895 2 2 2v0z"></path>
</symbol>

<symbol id="icon-beds" viewBox="0 0 32 32">
<path stroke-linejoin="round" stroke-linecap="round" stroke-miterlimit="4" stroke-width="2.24" d="M3 26v-7c0.003-1.060 0.426-2.076 1.175-2.825s1.765-1.172 2.825-1.175h18c1.060 0.003 2.076 0.426 2.825 1.175s1.172 1.765 1.175 2.825v7M24 15h-18v-6.5c0.002-0.662 0.266-1.297 0.734-1.766s1.103-0.732 1.766-0.734h15c0.662 0.002 1.297 0.266 1.766 0.734s0.732 1.103 0.734 1.766v6.5h-2z"></path>
<path stroke-linejoin="round" stroke-linecap="round" stroke-miterlimit="4" stroke-width="2.24" d="M3 26v-0.5c0.001-0.397 0.16-0.778 0.441-1.059s0.662-0.44 1.059-0.441h23c0.397 0.001 0.778 0.16 1.059 0.441s0.44 0.662 0.441 1.059v0.5M7 15v-1c0.002-0.53 0.213-1.038 0.587-1.413s0.883-0.586 1.413-0.587h5c0.53 0.002 1.038 0.213 1.413 0.587s0.586 0.883 0.587 1.413M16 14v1M16 14c0.001-0.53 0.213-1.038 0.587-1.413s0.883-0.586 1.413-0.587h5c0.53 0.002 1.038 0.213 1.413 0.587s0.586 0.883 0.587 1.413v1"></path>
</symbol>
<symbol id="icon-calendar" viewBox="0 0 32 32">
<path stroke-linejoin="round" stroke-linecap="round" stroke-miterlimit="4" stroke-width="2.4" d="M25.333 5.333h-18.667c-1.473 0-2.667 1.194-2.667 2.667v18.667c0 1.473 1.194 2.667 2.667 2.667h18.667c1.473 0 2.667-1.194 2.667-2.667v-18.667c0-1.473-1.194-2.667-2.667-2.667z"></path>
<path stroke-linejoin="round" stroke-linecap="round" stroke-miterlimit="4" stroke-width="2.4" d="M21.333 2.667v5.333"></path>
<path stroke-linejoin="round" stroke-linecap="round" stroke-miterlimit="4" stroke-width="2.4" d="M10.667 2.667v5.333"></path>
<path stroke-linejoin="round" stroke-linecap="round" stroke-miterlimit="4" stroke-width="2.4" d="M4 13.333h24"></path>
</symbol>
<symbol id="icon-camper" viewBox="0 0 32 32">
<path d="M1.826 6.060h8.686c0.073 0 0.142-0.028 0.194-0.079l0.834-0.814c0.243-0.237 0.565-0.367 0.908-0.367h13.172c0.613 0 1.183 0.297 1.523 0.795l1.579 2.31c0.224 0.328 0.244 0.747 0.054 1.095s-0.56 0.563-0.964 0.563h-6.789v0.669h3.477c0.922 0 1.751 0.534 2.112 1.361l2.036 4.655 1.783 0.696c0.952 0.372 1.568 1.258 1.568 2.259v4.311c0 0.643-0.536 1.166-1.195 1.166h-2.075c-0.241 1.427-1.515 2.52-3.045 2.52s-2.804-1.092-3.045-2.52h-11.342c-0.241 1.427-1.515 2.52-3.045 2.52s-2.804-1.092-3.045-2.52h-4.145c-0.586 0-1.063-0.465-1.063-1.037v-15.803c0-0.982 0.819-1.781 1.826-1.781zM25.685 26.216c1.146 0 2.078-0.909 2.078-2.027s-0.932-2.027-2.078-2.027c-1.146 0-2.078 0.909-2.078 2.027s0.932 2.027 2.078 2.027zM21.024 23.696h1.615c0.004-0.025 0.009-0.049 0.014-0.073 0.003-0.017 0.006-0.033 0.010-0.050 0.008-0.039 0.017-0.077 0.027-0.115 0.002-0.008 0.004-0.016 0.006-0.024 0.012-0.046 0.025-0.091 0.040-0.136 0.004-0.013 0.009-0.026 0.013-0.039 0.010-0.032 0.021-0.063 0.033-0.094 0.006-0.017 0.013-0.033 0.020-0.050 0.010-0.027 0.021-0.054 0.033-0.081 0.007-0.018 0.015-0.035 0.023-0.052 0.011-0.026 0.023-0.050 0.035-0.076 0.009-0.018 0.017-0.035 0.027-0.053 0.012-0.024 0.025-0.048 0.038-0.072 0.009-0.017 0.019-0.035 0.029-0.052 0.013-0.024 0.027-0.047 0.042-0.070 0.010-0.017 0.020-0.033 0.030-0.050 0.015-0.024 0.031-0.047 0.046-0.070 0.010-0.015 0.021-0.031 0.031-0.046 0.017-0.025 0.036-0.049 0.054-0.074 0.009-0.013 0.019-0.026 0.028-0.039 0.025-0.032 0.050-0.063 0.076-0.094 0.004-0.005 0.007-0.009 0.011-0.014 0.030-0.035 0.061-0.070 0.092-0.104 0.010-0.011 0.020-0.020 0.030-0.031 0.022-0.023 0.044-0.046 0.067-0.069 0.013-0.013 0.026-0.025 0.039-0.037 0.021-0.020 0.042-0.039 0.063-0.059 0.014-0.013 0.029-0.025 0.043-0.038 0.021-0.018 0.042-0.036 0.063-0.054l0.046-0.037c0.021-0.017 0.043-0.034 0.065-0.050 0.016-0.012 0.032-0.024 0.048-0.035 0.022-0.016 0.045-0.032 0.068-0.047 0.016-0.011 0.032-0.022 0.048-0.032 0.024-0.016 0.048-0.031 0.073-0.046 0.016-0.009 0.031-0.019 0.048-0.029 0.027-0.016 0.054-0.031 0.082-0.046 0.014-0.008 0.028-0.016 0.042-0.023 0.039-0.020 0.078-0.040 0.118-0.059 0.003-0.001 0.006-0.003 0.009-0.004 0.043-0.020 0.086-0.039 0.13-0.057 0.014-0.006 0.029-0.011 0.043-0.017 0.030-0.012 0.060-0.024 0.091-0.035 0.017-0.006 0.035-0.012 0.052-0.018 0.028-0.009 0.056-0.019 0.084-0.028 0.019-0.006 0.038-0.011 0.057-0.017 0.027-0.008 0.055-0.016 0.082-0.023 0.020-0.005 0.040-0.010 0.060-0.015 0.027-0.007 0.055-0.013 0.083-0.018 0.020-0.004 0.040-0.009 0.061-0.013 0.028-0.005 0.057-0.010 0.085-0.015 0.020-0.004 0.040-0.007 0.060-0.009 0.029-0.004 0.059-0.008 0.090-0.011 0.019-0.002 0.038-0.005 0.058-0.006 0.033-0.003 0.067-0.006 0.1-0.007 0.017-0.001 0.033-0.003 0.049-0.003 0.050-0.003 0.1-0.004 0.151-0.004s0.101 0.001 0.151 0.004c0.017 0 0.033 0.002 0.049 0.003 0.034 0.002 0.067 0.004 0.1 0.007 0.019 0.002 0.039 0.004 0.058 0.006 0.030 0.004 0.060 0.007 0.090 0.011 0.021 0.003 0.040 0.006 0.061 0.009 0.029 0.004 0.057 0.009 0.085 0.015 0.021 0.004 0.041 0.008 0.061 0.013 0.028 0.006 0.055 0.012 0.083 0.018 0.020 0.005 0.040 0.010 0.060 0.015 0.027 0.007 0.055 0.015 0.082 0.023 0.019 0.006 0.038 0.011 0.057 0.017 0.028 0.009 0.056 0.018 0.084 0.028 0.017 0.006 0.035 0.012 0.052 0.018 0.031 0.011 0.061 0.023 0.091 0.035 0.014 0.006 0.029 0.011 0.043 0.017 0.044 0.018 0.087 0.037 0.13 0.057 0.003 0.002 0.006 0.003 0.009 0.004 0.040 0.019 0.079 0.039 0.118 0.059 0.014 0.007 0.027 0.015 0.042 0.023 0.027 0.015 0.055 0.030 0.082 0.046 0.016 0.009 0.032 0.019 0.048 0.029 0.024 0.015 0.049 0.030 0.073 0.046 0.016 0.011 0.032 0.022 0.048 0.032 0.023 0.016 0.046 0.031 0.068 0.047 0.016 0.011 0.032 0.023 0.048 0.035 0.022 0.016 0.044 0.033 0.065 0.050l0.046 0.037c0.021 0.018 0.042 0.035 0.063 0.054 0.015 0.013 0.029 0.025 0.043 0.038 0.021 0.019 0.042 0.039 0.063 0.059 0.013 0.012 0.026 0.024 0.039 0.037 0.023 0.023 0.045 0.046 0.067 0.069 0.010 0.010 0.020 0.020 0.030 0.031 0.031 0.034 0.062 0.068 0.092 0.104 0.004 0.005 0.008 0.009 0.011 0.014 0.026 0.031 0.051 0.062 0.076 0.094 0.010 0.013 0.019 0.026 0.028 0.039 0.019 0.024 0.037 0.049 0.054 0.074 0.010 0.015 0.021 0.030 0.031 0.046 0.016 0.024 0.031 0.047 0.046 0.070 0.010 0.017 0.020 0.033 0.030 0.050 0.014 0.023 0.028 0.047 0.042 0.070 0.010 0.017 0.019 0.035 0.029 0.052 0.013 0.024 0.026 0.048 0.038 0.072 0.009 0.018 0.018 0.035 0.027 0.053 0.012 0.025 0.023 0.050 0.035 0.076 0.008 0.017 0.016 0.035 0.023 0.052 0.012 0.027 0.022 0.054 0.033 0.081 0.007 0.016 0.013 0.033 0.020 0.050 0.011 0.031 0.022 0.063 0.033 0.094 0.004 0.013 0.009 0.026 0.013 0.039 0.014 0.045 0.027 0.090 0.040 0.136 0.002 0.008 0.004 0.016 0.006 0.024 0.010 0.038 0.019 0.076 0.027 0.115 0.004 0.016 0.006 0.033 0.010 0.050 0.005 0.024 0.010 0.048 0.014 0.073h2.074c0.103 0 0.186-0.082 0.186-0.182v-2.062h-0.787v-0.984h0.787v-1.264c0-0.596-0.366-1.124-0.933-1.345l-1.888-0.737h-7.146v6.574zM21.024 16.138h6.48l-1.818-4.158c-0.203-0.464-0.668-0.763-1.185-0.763h-3.477v4.921zM8.252 26.216c1.146 0 2.078-0.909 2.078-2.027s-0.932-2.027-2.078-2.027c-0.036 0-0.071 0.001-0.107 0.003-0.955 0.047-1.742 0.727-1.929 1.616-0.007 0.033-0.013 0.067-0.019 0.1-0.011 0.067-0.017 0.135-0.021 0.204-0.002 0.035-0.003 0.069-0.003 0.104 0 1.118 0.932 2.027 2.078 2.027zM1.009 20.468h0.787v0.984h-0.787v2.192c0 0.029 0.024 0.052 0.054 0.052h4.144c0.004-0.024 0.009-0.048 0.014-0.072 0.003-0.017 0.006-0.034 0.010-0.051 0.008-0.038 0.017-0.075 0.027-0.112 0.002-0.009 0.004-0.018 0.006-0.026 0.012-0.046 0.025-0.090 0.040-0.135 0.004-0.014 0.009-0.028 0.014-0.041 0.011-0.031 0.021-0.062 0.032-0.093 0.006-0.017 0.013-0.034 0.020-0.051 0.011-0.027 0.021-0.054 0.032-0.080 0.008-0.018 0.016-0.036 0.024-0.054 0.011-0.025 0.023-0.050 0.035-0.074 0.008-0.018 0.018-0.036 0.027-0.054 0.012-0.024 0.025-0.048 0.038-0.072 0.010-0.017 0.019-0.035 0.029-0.052 0.014-0.024 0.027-0.047 0.042-0.070 0.010-0.017 0.020-0.033 0.031-0.050 0.015-0.024 0.030-0.047 0.046-0.070 0.010-0.016 0.021-0.032 0.031-0.046 0.017-0.025 0.035-0.049 0.053-0.073 0.010-0.013 0.019-0.027 0.029-0.040 0.024-0.031 0.049-0.062 0.074-0.092 0.004-0.006 0.008-0.011 0.013-0.016 0.030-0.035 0.061-0.070 0.092-0.104 0.010-0.011 0.020-0.021 0.030-0.032 0.022-0.023 0.044-0.046 0.067-0.068 0.013-0.013 0.026-0.025 0.040-0.037 0.021-0.020 0.041-0.039 0.063-0.058 0.014-0.013 0.029-0.025 0.044-0.038 0.021-0.018 0.042-0.035 0.063-0.053 0.015-0.013 0.031-0.025 0.046-0.037 0.021-0.017 0.043-0.033 0.065-0.050 0.016-0.012 0.032-0.024 0.048-0.035 0.022-0.016 0.045-0.032 0.067-0.047 0.017-0.011 0.033-0.022 0.049-0.033 0.024-0.016 0.048-0.031 0.072-0.045 0.016-0.010 0.032-0.020 0.048-0.029 0.027-0.016 0.054-0.031 0.081-0.046 0.014-0.008 0.028-0.016 0.042-0.023 0.038-0.020 0.077-0.040 0.117-0.058 0.003-0.002 0.006-0.004 0.010-0.005 0.043-0.020 0.086-0.039 0.13-0.057 0.014-0.006 0.029-0.011 0.043-0.017 0.030-0.012 0.060-0.024 0.091-0.035 0.017-0.006 0.035-0.012 0.053-0.018 0.027-0.009 0.055-0.019 0.084-0.028 0.019-0.006 0.038-0.011 0.057-0.017 0.027-0.008 0.055-0.016 0.082-0.023 0.020-0.005 0.040-0.010 0.060-0.015 0.027-0.007 0.055-0.013 0.083-0.018 0.020-0.004 0.040-0.009 0.061-0.013 0.028-0.005 0.056-0.010 0.085-0.015 0.020-0.004 0.040-0.007 0.061-0.009 0.029-0.004 0.059-0.008 0.090-0.011 0.019-0.002 0.038-0.005 0.058-0.006 0.033-0.003 0.067-0.006 0.1-0.007 0.016-0.001 0.033-0.003 0.049-0.003 0.050-0.003 0.1-0.004 0.151-0.004s0.101 0.001 0.151 0.004c0.017 0 0.033 0.002 0.049 0.003 0.033 0.002 0.067 0.004 0.1 0.007 0.019 0.002 0.039 0.004 0.058 0.006 0.030 0.004 0.060 0.007 0.090 0.011 0.021 0.003 0.040 0.006 0.060 0.009 0.029 0.004 0.057 0.009 0.085 0.015 0.021 0.004 0.041 0.008 0.061 0.013 0.028 0.006 0.055 0.012 0.083 0.018 0.020 0.005 0.040 0.010 0.060 0.015 0.027 0.007 0.055 0.015 0.082 0.023 0.019 0.006 0.038 0.011 0.057 0.017 0.028 0.009 0.056 0.018 0.084 0.028 0.018 0.006 0.036 0.012 0.053 0.018 0.031 0.011 0.061 0.023 0.091 0.035 0.014 0.006 0.029 0.011 0.043 0.017 0.044 0.018 0.087 0.037 0.13 0.057 0.004 0.002 0.007 0.003 0.010 0.005 0.040 0.019 0.078 0.038 0.117 0.058 0.014 0.007 0.028 0.015 0.042 0.023 0.027 0.015 0.054 0.030 0.081 0.046 0.016 0.009 0.032 0.019 0.048 0.029 0.024 0.015 0.048 0.030 0.072 0.045 0.016 0.011 0.032 0.022 0.049 0.033 0.023 0.015 0.045 0.031 0.067 0.047 0.016 0.011 0.032 0.023 0.048 0.035 0.022 0.016 0.044 0.033 0.065 0.050 0.016 0.012 0.031 0.025 0.046 0.037 0.021 0.017 0.042 0.035 0.063 0.053 0.015 0.013 0.029 0.025 0.044 0.038 0.021 0.019 0.042 0.039 0.063 0.059 0.013 0.012 0.026 0.024 0.039 0.037 0.023 0.022 0.045 0.046 0.067 0.069 0.010 0.010 0.020 0.020 0.030 0.031 0.031 0.034 0.062 0.068 0.092 0.104 0.004 0.005 0.008 0.010 0.012 0.015 0.025 0.031 0.051 0.062 0.075 0.094 0.010 0.013 0.019 0.026 0.029 0.039 0.018 0.024 0.036 0.049 0.054 0.074 0.010 0.015 0.021 0.031 0.031 0.046 0.016 0.023 0.031 0.046 0.046 0.070 0.010 0.017 0.021 0.033 0.031 0.050 0.014 0.023 0.028 0.047 0.042 0.070 0.010 0.017 0.019 0.035 0.029 0.052 0.013 0.024 0.026 0.048 0.038 0.072 0.009 0.018 0.017 0.035 0.026 0.053 0.012 0.025 0.023 0.050 0.035 0.076 0.008 0.017 0.016 0.035 0.023 0.052 0.012 0.027 0.022 0.054 0.033 0.081 0.006 0.016 0.013 0.033 0.019 0.050 0.012 0.031 0.022 0.063 0.033 0.095 0.004 0.013 0.009 0.026 0.013 0.039 0.014 0.045 0.027 0.091 0.040 0.136 0.002 0.007 0.003 0.015 0.005 0.022 0.010 0.039 0.019 0.078 0.028 0.117 0.004 0.016 0.006 0.032 0.009 0.048 0.005 0.025 0.010 0.049 0.015 0.074h8.717v-14.625c0-0.272 0.226-0.492 0.504-0.492h7.293c0.012 0 0.051 0 0.075-0.044s0.003-0.074-0.004-0.084l-1.578-2.31c-0.153-0.224-0.408-0.357-0.684-0.357h-13.172c-0.073 0-0.142 0.028-0.195 0.079l-0.834 0.814c-0.242 0.237-0.565 0.367-0.908 0.367h-8.686c-0.45 0-0.817 0.357-0.817 0.797v12.627z"></path>
<path d="M14.081 9.838h3.191c0.644 0 1.169 0.511 1.169 1.14v10.532c0 0.272-0.226 0.492-0.504 0.492h-4.52c-0.278 0-0.504-0.22-0.504-0.492v-10.532c-0-0.629 0.524-1.14 1.169-1.14zM13.921 21.019h3.511v-5.787h-3.511v5.787zM13.921 14.248h3.511v-3.269c0-0.086-0.072-0.156-0.16-0.156h-3.191c-0.088 0-0.16 0.070-0.16 0.156v3.269h0zM3.875 9.838h6.17c0.713 0 1.293 0.566 1.293 1.262v2.87c0 0.696-0.58 1.262-1.293 1.262h-6.17c-0.713 0-1.293-0.566-1.293-1.262v-2.87c0-0.696 0.581-1.262 1.294-1.262zM3.59 13.97c0 0.153 0.127 0.278 0.284 0.278h6.17c0.157 0 0.284-0.124 0.284-0.278v-2.87c0-0.153-0.128-0.278-0.284-0.278h-6.17c-0.157 0-0.284 0.124-0.284 0.278v2.87h0z"></path>
</symbol>
<symbol id="icon-camper2" viewBox="0 0 32 32">
<path d="M4.188 5.050h7.239c0.061 0 0.119-0.023 0.162-0.066l0.695-0.678c0.202-0.197 0.471-0.306 0.757-0.306h10.976c0.511 0 0.986 0.248 1.269 0.663l1.316 1.925c0.187 0.273 0.204 0.623 0.045 0.912s-0.467 0.469-0.803 0.469h-5.657v0.558h2.897c0.768 0 1.459 0.445 1.76 1.134l1.696 3.879 1.486 0.58c0.794 0.31 1.306 1.048 1.306 1.882v3.592c0 0.536-0.447 0.972-0.996 0.972h-1.729c-0.201 1.189-1.262 2.1-2.538 2.1s-2.336-0.91-2.538-2.1h-9.452c-0.201 1.189-1.262 2.1-2.538 2.1s-2.336-0.91-2.538-2.1h-3.454c-0.488 0-0.885-0.387-0.885-0.864v-13.169c0-0.819 0.682-1.484 1.521-1.484zM24.071 21.847c0.955 0 1.732-0.758 1.732-1.69s-0.777-1.69-1.732-1.69c-0.955 0-1.732 0.758-1.732 1.69s0.777 1.69 1.732 1.69zM20.187 19.747h1.346c0.003-0.021 0.008-0.041 0.012-0.061 0.003-0.014 0.005-0.028 0.008-0.041 0.007-0.032 0.014-0.064 0.023-0.096 0.002-0.007 0.003-0.013 0.005-0.020 0.010-0.038 0.021-0.076 0.033-0.113 0.003-0.011 0.007-0.022 0.011-0.033 0.009-0.026 0.018-0.053 0.027-0.078 0.005-0.014 0.011-0.028 0.016-0.041 0.009-0.023 0.017-0.045 0.027-0.068 0.006-0.015 0.013-0.029 0.020-0.044 0.009-0.021 0.019-0.042 0.029-0.063 0.007-0.015 0.014-0.029 0.022-0.044 0.010-0.020 0.021-0.040 0.032-0.060 0.008-0.014 0.016-0.029 0.024-0.043 0.011-0.020 0.023-0.039 0.035-0.059 0.008-0.014 0.017-0.028 0.025-0.041 0.013-0.020 0.026-0.039 0.039-0.059 0.009-0.013 0.017-0.026 0.026-0.038 0.014-0.021 0.030-0.041 0.045-0.061 0.008-0.011 0.015-0.022 0.024-0.032 0.021-0.027 0.042-0.053 0.064-0.079 0.003-0.004 0.006-0.008 0.009-0.012 0.025-0.030 0.051-0.058 0.077-0.087 0.008-0.009 0.016-0.017 0.025-0.026 0.019-0.019 0.037-0.039 0.056-0.058 0.011-0.011 0.022-0.021 0.033-0.031 0.017-0.016 0.035-0.033 0.052-0.049 0.012-0.010 0.024-0.021 0.036-0.031 0.017-0.015 0.035-0.030 0.053-0.045l0.038-0.030c0.018-0.014 0.036-0.028 0.054-0.042 0.013-0.010 0.027-0.020 0.040-0.029 0.018-0.013 0.037-0.026 0.056-0.039 0.013-0.009 0.027-0.018 0.040-0.027 0.020-0.013 0.040-0.026 0.061-0.038 0.013-0.008 0.026-0.016 0.040-0.024 0.022-0.013 0.045-0.026 0.068-0.038 0.012-0.007 0.023-0.013 0.035-0.019 0.033-0.017 0.065-0.033 0.098-0.049 0.003-0.001 0.005-0.002 0.008-0.004 0.036-0.017 0.072-0.033 0.108-0.048 0.012-0.005 0.024-0.009 0.036-0.014 0.025-0.010 0.050-0.020 0.076-0.029 0.014-0.005 0.029-0.010 0.044-0.015 0.023-0.008 0.046-0.016 0.070-0.023 0.016-0.005 0.032-0.009 0.048-0.014 0.023-0.007 0.046-0.013 0.069-0.019 0.016-0.004 0.033-0.008 0.050-0.012 0.023-0.006 0.046-0.010 0.069-0.015 0.017-0.004 0.034-0.007 0.051-0.010 0.024-0.004 0.047-0.009 0.071-0.012 0.017-0.003 0.033-0.006 0.050-0.008 0.025-0.004 0.049-0.007 0.075-0.010 0.016-0.002 0.032-0.004 0.048-0.005 0.028-0.003 0.056-0.005 0.083-0.006 0.014-0.001 0.027-0.002 0.041-0.003 0.042-0.002 0.084-0.003 0.126-0.003s0.084 0.001 0.126 0.003c0.014 0 0.027 0.002 0.041 0.003 0.028 0.002 0.056 0.004 0.083 0.006 0.016 0.001 0.032 0.004 0.048 0.005 0.025 0.003 0.050 0.006 0.075 0.010 0.017 0.002 0.034 0.005 0.050 0.008 0.024 0.004 0.047 0.008 0.071 0.012 0.017 0.003 0.034 0.007 0.051 0.010 0.023 0.005 0.046 0.010 0.069 0.015 0.017 0.004 0.033 0.008 0.050 0.012 0.023 0.006 0.046 0.012 0.069 0.019 0.016 0.005 0.032 0.009 0.048 0.014 0.024 0.007 0.047 0.015 0.070 0.023 0.014 0.005 0.029 0.010 0.044 0.015 0.026 0.010 0.051 0.019 0.076 0.029 0.012 0.005 0.024 0.009 0.036 0.014 0.036 0.015 0.073 0.031 0.108 0.048 0.003 0.001 0.005 0.003 0.008 0.004 0.033 0.016 0.066 0.032 0.098 0.049 0.011 0.006 0.023 0.013 0.035 0.019 0.023 0.012 0.046 0.025 0.068 0.038 0.013 0.008 0.027 0.016 0.040 0.024 0.020 0.012 0.041 0.025 0.061 0.038 0.013 0.009 0.027 0.018 0.040 0.027 0.019 0.013 0.038 0.026 0.057 0.039 0.013 0.010 0.027 0.019 0.040 0.029 0.018 0.014 0.036 0.028 0.054 0.042l0.038 0.030c0.018 0.015 0.035 0.030 0.053 0.045 0.012 0.010 0.024 0.021 0.036 0.031 0.018 0.016 0.035 0.032 0.052 0.049 0.011 0.010 0.022 0.020 0.033 0.031 0.019 0.019 0.038 0.038 0.056 0.058 0.008 0.009 0.017 0.017 0.025 0.026 0.026 0.028 0.052 0.057 0.077 0.087 0.003 0.004 0.006 0.008 0.009 0.012 0.022 0.026 0.043 0.052 0.064 0.079 0.008 0.010 0.016 0.021 0.024 0.032 0.015 0.020 0.031 0.041 0.045 0.061 0.009 0.012 0.017 0.025 0.026 0.038 0.013 0.020 0.026 0.039 0.039 0.059 0.008 0.014 0.017 0.028 0.025 0.041 0.012 0.019 0.024 0.039 0.035 0.059 0.008 0.014 0.016 0.029 0.024 0.043 0.011 0.020 0.022 0.040 0.032 0.060 0.008 0.015 0.015 0.029 0.022 0.044 0.010 0.021 0.019 0.042 0.029 0.063 0.007 0.014 0.013 0.029 0.019 0.044 0.010 0.022 0.019 0.045 0.027 0.068 0.006 0.014 0.011 0.028 0.016 0.041 0.009 0.026 0.018 0.052 0.027 0.078 0.004 0.011 0.008 0.022 0.011 0.033 0.012 0.037 0.023 0.075 0.033 0.113 0.002 0.007 0.003 0.013 0.005 0.020 0.008 0.032 0.016 0.064 0.023 0.096 0.003 0.014 0.005 0.028 0.008 0.041 0.004 0.020 0.008 0.040 0.012 0.061h1.728c0.086 0 0.155-0.068 0.155-0.152v-1.718h-0.656v-0.82h0.656v-1.054c0-0.497-0.305-0.937-0.778-1.121l-1.573-0.614h-5.955v5.479zM20.187 13.448h5.4l-1.515-3.465c-0.169-0.386-0.557-0.636-0.987-0.636h-2.897v4.101zM9.544 21.847c0.955 0 1.732-0.758 1.732-1.69s-0.777-1.69-1.732-1.69c-0.030 0-0.060 0.001-0.089 0.002-0.796 0.039-1.451 0.606-1.607 1.347-0.006 0.028-0.011 0.055-0.015 0.083-0.009 0.056-0.014 0.113-0.017 0.17-0.002 0.029-0.002 0.058-0.002 0.087 0 0.932 0.777 1.69 1.732 1.69zM3.507 17.057h0.656v0.82h-0.656v1.826c0 0.024 0.020 0.044 0.045 0.044h3.453c0.003-0.020 0.008-0.040 0.012-0.060 0.003-0.014 0.005-0.028 0.008-0.042 0.007-0.032 0.014-0.063 0.022-0.094 0.002-0.007 0.003-0.015 0.005-0.022 0.010-0.038 0.021-0.075 0.033-0.113 0.004-0.012 0.008-0.023 0.011-0.034 0.009-0.026 0.018-0.052 0.027-0.077 0.005-0.014 0.011-0.028 0.016-0.042 0.009-0.022 0.018-0.045 0.027-0.067 0.006-0.015 0.013-0.030 0.020-0.045 0.009-0.021 0.019-0.041 0.029-0.062 0.007-0.015 0.015-0.030 0.022-0.045 0.010-0.020 0.021-0.040 0.031-0.060 0.008-0.014 0.016-0.029 0.024-0.043 0.011-0.020 0.023-0.039 0.035-0.058 0.008-0.014 0.017-0.028 0.026-0.042 0.012-0.020 0.025-0.039 0.038-0.058 0.008-0.013 0.017-0.026 0.026-0.039 0.014-0.021 0.030-0.041 0.044-0.061 0.008-0.011 0.016-0.022 0.025-0.033 0.020-0.026 0.041-0.051 0.062-0.077 0.004-0.005 0.007-0.009 0.011-0.013 0.025-0.030 0.051-0.058 0.077-0.087 0.008-0.009 0.017-0.017 0.025-0.026 0.018-0.019 0.037-0.038 0.056-0.057 0.011-0.011 0.022-0.021 0.033-0.031 0.017-0.016 0.034-0.032 0.052-0.049 0.012-0.010 0.024-0.021 0.036-0.032 0.017-0.015 0.035-0.030 0.052-0.044 0.013-0.010 0.026-0.021 0.039-0.031 0.017-0.014 0.036-0.028 0.054-0.041 0.013-0.010 0.027-0.020 0.040-0.029 0.019-0.013 0.037-0.026 0.056-0.039 0.014-0.009 0.027-0.018 0.041-0.027 0.020-0.013 0.040-0.026 0.060-0.038 0.013-0.008 0.027-0.016 0.040-0.024 0.022-0.013 0.045-0.026 0.068-0.038 0.012-0.007 0.023-0.013 0.035-0.019 0.032-0.017 0.064-0.033 0.097-0.049 0.003-0.001 0.005-0.003 0.008-0.004 0.036-0.017 0.072-0.033 0.108-0.048 0.012-0.005 0.024-0.009 0.036-0.014 0.025-0.010 0.050-0.020 0.076-0.029 0.014-0.005 0.029-0.010 0.044-0.015 0.023-0.008 0.046-0.016 0.070-0.023 0.016-0.005 0.032-0.009 0.048-0.014 0.023-0.007 0.046-0.013 0.069-0.019 0.017-0.004 0.033-0.008 0.050-0.012 0.023-0.006 0.046-0.010 0.069-0.015 0.017-0.004 0.034-0.007 0.051-0.010 0.024-0.004 0.047-0.009 0.071-0.012 0.017-0.003 0.033-0.006 0.050-0.008 0.025-0.004 0.049-0.007 0.075-0.010 0.016-0.002 0.032-0.004 0.048-0.005 0.028-0.003 0.055-0.005 0.083-0.006 0.014-0.001 0.027-0.002 0.041-0.003 0.042-0.002 0.084-0.003 0.126-0.003s0.084 0.001 0.126 0.003c0.014 0 0.027 0.002 0.041 0.003 0.028 0.002 0.056 0.004 0.083 0.006 0.016 0.001 0.032 0.004 0.048 0.005 0.025 0.003 0.050 0.006 0.075 0.010 0.017 0.002 0.034 0.005 0.050 0.008 0.024 0.004 0.047 0.008 0.071 0.012 0.017 0.003 0.034 0.007 0.051 0.010 0.023 0.005 0.046 0.010 0.069 0.015 0.017 0.004 0.033 0.008 0.050 0.012 0.023 0.006 0.046 0.012 0.069 0.019 0.016 0.005 0.032 0.009 0.048 0.014 0.024 0.007 0.047 0.015 0.070 0.023 0.015 0.005 0.030 0.010 0.044 0.015 0.026 0.010 0.050 0.019 0.076 0.029 0.012 0.005 0.024 0.009 0.036 0.014 0.036 0.015 0.073 0.031 0.108 0.048 0.003 0.001 0.006 0.003 0.008 0.004 0.033 0.015 0.065 0.032 0.097 0.049 0.012 0.006 0.024 0.013 0.035 0.019 0.023 0.012 0.045 0.025 0.068 0.038 0.013 0.008 0.027 0.016 0.040 0.024 0.020 0.012 0.040 0.025 0.060 0.038 0.013 0.009 0.027 0.018 0.041 0.027 0.019 0.013 0.038 0.026 0.056 0.039 0.013 0.010 0.027 0.019 0.040 0.029 0.018 0.014 0.036 0.028 0.054 0.041 0.013 0.010 0.026 0.021 0.039 0.031 0.018 0.014 0.035 0.029 0.052 0.044 0.012 0.010 0.025 0.021 0.036 0.031 0.018 0.016 0.035 0.032 0.052 0.049 0.011 0.010 0.022 0.020 0.033 0.031 0.019 0.019 0.038 0.038 0.056 0.057 0.008 0.009 0.017 0.017 0.025 0.026 0.026 0.028 0.052 0.057 0.077 0.087 0.003 0.004 0.007 0.009 0.010 0.012 0.021 0.026 0.042 0.051 0.063 0.078 0.008 0.010 0.016 0.021 0.024 0.032 0.015 0.020 0.030 0.041 0.045 0.061 0.009 0.012 0.017 0.026 0.026 0.038 0.013 0.019 0.026 0.039 0.038 0.058 0.009 0.014 0.017 0.028 0.026 0.041 0.012 0.019 0.024 0.039 0.035 0.059 0.008 0.014 0.016 0.029 0.024 0.043 0.011 0.020 0.022 0.040 0.032 0.060 0.007 0.015 0.014 0.029 0.022 0.044 0.010 0.021 0.020 0.042 0.029 0.063 0.007 0.014 0.013 0.029 0.019 0.044 0.010 0.022 0.019 0.045 0.028 0.068 0.005 0.014 0.011 0.028 0.016 0.041 0.010 0.026 0.019 0.052 0.027 0.079 0.004 0.011 0.008 0.021 0.011 0.032 0.012 0.037 0.023 0.075 0.033 0.113 0.001 0.006 0.003 0.012 0.004 0.018 0.008 0.032 0.016 0.065 0.023 0.098 0.003 0.013 0.005 0.027 0.008 0.040 0.004 0.021 0.008 0.041 0.012 0.062h7.264v-12.187c0-0.226 0.188-0.41 0.42-0.41h6.078c0.010 0 0.042 0 0.062-0.036s0.002-0.062-0.004-0.070l-1.315-1.925c-0.127-0.186-0.34-0.298-0.57-0.298h-10.976c-0.061 0-0.119 0.023-0.162 0.066l-0.695 0.678c-0.202 0.197-0.471 0.306-0.757 0.306h-7.239c-0.375 0-0.681 0.298-0.681 0.664v10.523z"></path>
<path d="M14.401 8.199h2.659c0.537 0 0.974 0.426 0.974 0.95v8.777c0 0.226-0.188 0.41-0.42 0.41h-3.766c-0.232 0-0.42-0.184-0.42-0.41v-8.777c-0-0.524 0.436-0.95 0.974-0.95zM14.267 17.516h2.926v-4.823h-2.926v4.823zM14.267 11.873h2.926v-2.724c0-0.072-0.060-0.13-0.134-0.13h-2.659c-0.074 0-0.133 0.058-0.133 0.13l0 2.724z"></path>
</symbol>
<symbol id="icon-camper3" viewBox="0 0 32 32">
<path d="M1.826 6.060h8.686c0.073 0 0.142-0.028 0.194-0.079l0.834-0.814c0.243-0.237 0.565-0.367 0.908-0.367h13.172c0.613 0 1.183 0.297 1.523 0.795l1.579 2.31c0.224 0.328 0.244 0.747 0.054 1.095s-0.56 0.563-0.964 0.563h-6.789v0.669h3.477c0.922 0 1.751 0.534 2.112 1.361l2.036 4.655 1.783 0.696c0.952 0.372 1.568 1.258 1.568 2.259v4.311c0 0.643-0.536 1.166-1.195 1.166h-2.075c-0.241 1.427-1.515 2.52-3.045 2.52s-2.804-1.092-3.045-2.52h-11.342c-0.241 1.427-1.515 2.52-3.045 2.52s-2.804-1.092-3.045-2.52h-4.145c-0.586 0-1.063-0.465-1.063-1.037v-15.803c0-0.982 0.819-1.781 1.826-1.781zM25.685 26.216c1.146 0 2.078-0.909 2.078-2.027s-0.932-2.027-2.078-2.027c-1.146 0-2.078 0.909-2.078 2.027s0.932 2.027 2.078 2.027zM21.024 23.696h1.615c0.004-0.025 0.009-0.049 0.014-0.073 0.003-0.017 0.006-0.033 0.010-0.050 0.008-0.039 0.017-0.077 0.027-0.115 0.002-0.008 0.004-0.016 0.006-0.024 0.012-0.046 0.025-0.091 0.040-0.136 0.004-0.013 0.009-0.026 0.013-0.039 0.010-0.032 0.021-0.063 0.033-0.094 0.006-0.017 0.013-0.033 0.020-0.050 0.010-0.027 0.021-0.054 0.033-0.081 0.007-0.018 0.015-0.035 0.023-0.052 0.011-0.026 0.023-0.050 0.035-0.076 0.009-0.018 0.017-0.035 0.027-0.053 0.012-0.024 0.025-0.048 0.038-0.072 0.009-0.017 0.019-0.035 0.029-0.052 0.013-0.024 0.027-0.047 0.042-0.070 0.010-0.017 0.020-0.033 0.030-0.050 0.015-0.024 0.031-0.047 0.046-0.070 0.010-0.015 0.021-0.031 0.031-0.046 0.017-0.025 0.036-0.049 0.054-0.074 0.009-0.013 0.019-0.026 0.028-0.039 0.025-0.032 0.050-0.063 0.076-0.094 0.004-0.005 0.007-0.009 0.011-0.014 0.030-0.035 0.061-0.070 0.092-0.104 0.010-0.011 0.020-0.020 0.030-0.031 0.022-0.023 0.044-0.046 0.067-0.069 0.013-0.013 0.026-0.025 0.039-0.037 0.021-0.020 0.042-0.039 0.063-0.059 0.014-0.013 0.029-0.025 0.043-0.038 0.021-0.018 0.042-0.036 0.063-0.054l0.046-0.037c0.021-0.017 0.043-0.034 0.065-0.050 0.016-0.012 0.032-0.024 0.048-0.035 0.022-0.016 0.045-0.032 0.068-0.047 0.016-0.011 0.032-0.022 0.048-0.032 0.024-0.016 0.048-0.031 0.073-0.046 0.016-0.009 0.031-0.019 0.048-0.029 0.027-0.016 0.054-0.031 0.082-0.046 0.014-0.008 0.028-0.016 0.042-0.023 0.039-0.020 0.078-0.040 0.118-0.059 0.003-0.001 0.006-0.003 0.009-0.004 0.043-0.020 0.086-0.039 0.13-0.057 0.014-0.006 0.029-0.011 0.043-0.017 0.030-0.012 0.060-0.024 0.091-0.035 0.017-0.006 0.035-0.012 0.052-0.018 0.028-0.009 0.056-0.019 0.084-0.028 0.019-0.006 0.038-0.011 0.057-0.017 0.027-0.008 0.055-0.016 0.082-0.023 0.020-0.005 0.040-0.010 0.060-0.015 0.027-0.007 0.055-0.013 0.083-0.018 0.020-0.004 0.040-0.009 0.061-0.013 0.028-0.005 0.057-0.010 0.085-0.015 0.020-0.004 0.040-0.007 0.060-0.009 0.029-0.004 0.059-0.008 0.090-0.011 0.019-0.002 0.038-0.005 0.058-0.006 0.033-0.003 0.067-0.006 0.1-0.007 0.017-0.001 0.033-0.003 0.049-0.003 0.050-0.003 0.1-0.004 0.151-0.004s0.101 0.001 0.151 0.004c0.017 0 0.033 0.002 0.049 0.003 0.034 0.002 0.067 0.004 0.1 0.007 0.019 0.002 0.039 0.004 0.058 0.006 0.030 0.004 0.060 0.007 0.090 0.011 0.021 0.003 0.040 0.006 0.061 0.009 0.029 0.004 0.057 0.009 0.085 0.015 0.021 0.004 0.041 0.008 0.061 0.013 0.028 0.006 0.055 0.012 0.083 0.018 0.020 0.005 0.040 0.010 0.060 0.015 0.027 0.007 0.055 0.015 0.082 0.023 0.019 0.006 0.038 0.011 0.057 0.017 0.028 0.009 0.056 0.018 0.084 0.028 0.017 0.006 0.035 0.012 0.052 0.018 0.031 0.011 0.061 0.023 0.091 0.035 0.014 0.006 0.029 0.011 0.043 0.017 0.044 0.018 0.087 0.037 0.13 0.057 0.003 0.002 0.006 0.003 0.009 0.004 0.040 0.019 0.079 0.039 0.118 0.059 0.014 0.007 0.027 0.015 0.042 0.023 0.027 0.015 0.055 0.030 0.082 0.046 0.016 0.009 0.032 0.019 0.048 0.029 0.024 0.015 0.049 0.030 0.073 0.046 0.016 0.011 0.032 0.022 0.048 0.032 0.023 0.016 0.046 0.031 0.068 0.047 0.016 0.011 0.032 0.023 0.048 0.035 0.022 0.016 0.044 0.033 0.065 0.050l0.046 0.037c0.021 0.018 0.042 0.035 0.063 0.054 0.015 0.013 0.029 0.025 0.043 0.038 0.021 0.019 0.042 0.039 0.063 0.059 0.013 0.012 0.026 0.024 0.039 0.037 0.023 0.023 0.045 0.046 0.067 0.069 0.010 0.010 0.020 0.020 0.030 0.031 0.031 0.034 0.062 0.068 0.092 0.104 0.004 0.005 0.008 0.009 0.011 0.014 0.026 0.031 0.051 0.062 0.076 0.094 0.010 0.013 0.019 0.026 0.028 0.039 0.019 0.024 0.037 0.049 0.054 0.074 0.010 0.015 0.021 0.030 0.031 0.046 0.016 0.024 0.031 0.047 0.046 0.070 0.010 0.017 0.020 0.033 0.030 0.050 0.014 0.023 0.028 0.047 0.042 0.070 0.010 0.017 0.019 0.035 0.029 0.052 0.013 0.024 0.026 0.048 0.038 0.072 0.009 0.018 0.018 0.035 0.027 0.053 0.012 0.025 0.023 0.050 0.035 0.076 0.008 0.017 0.016 0.035 0.023 0.052 0.012 0.027 0.022 0.054 0.033 0.081 0.007 0.016 0.013 0.033 0.020 0.050 0.011 0.031 0.022 0.063 0.033 0.094 0.004 0.013 0.009 0.026 0.013 0.039 0.014 0.045 0.027 0.090 0.040 0.136 0.002 0.008 0.004 0.016 0.006 0.024 0.010 0.038 0.019 0.076 0.027 0.115 0.004 0.016 0.006 0.033 0.010 0.050 0.005 0.024 0.010 0.048 0.014 0.073h2.074c0.103 0 0.186-0.082 0.186-0.182v-2.062h-0.787v-0.984h0.787v-1.264c0-0.596-0.366-1.124-0.933-1.345l-1.888-0.737h-7.146v6.574zM21.024 16.138h6.48l-1.818-4.158c-0.203-0.464-0.668-0.763-1.185-0.763h-3.477v4.921zM8.252 26.216c1.146 0 2.078-0.909 2.078-2.027s-0.932-2.027-2.078-2.027c-0.036 0-0.071 0.001-0.107 0.003-0.955 0.047-1.742 0.727-1.929 1.616-0.007 0.033-0.013 0.067-0.019 0.1-0.011 0.067-0.017 0.135-0.021 0.204-0.002 0.035-0.003 0.069-0.003 0.104 0 1.118 0.932 2.027 2.078 2.027zM1.009 20.468h0.787v0.984h-0.787v2.192c0 0.029 0.024 0.052 0.054 0.052h4.144c0.004-0.024 0.009-0.048 0.014-0.072 0.003-0.017 0.006-0.034 0.010-0.051 0.008-0.038 0.017-0.075 0.027-0.112 0.002-0.009 0.004-0.018 0.006-0.026 0.012-0.046 0.025-0.090 0.040-0.135 0.004-0.014 0.009-0.028 0.014-0.041 0.011-0.031 0.021-0.062 0.032-0.093 0.006-0.017 0.013-0.034 0.020-0.051 0.011-0.027 0.021-0.054 0.032-0.080 0.008-0.018 0.016-0.036 0.024-0.054 0.011-0.025 0.023-0.050 0.035-0.074 0.008-0.018 0.018-0.036 0.027-0.054 0.012-0.024 0.025-0.048 0.038-0.072 0.010-0.017 0.019-0.035 0.029-0.052 0.014-0.024 0.027-0.047 0.042-0.070 0.010-0.017 0.020-0.033 0.031-0.050 0.015-0.024 0.030-0.047 0.046-0.070 0.010-0.016 0.021-0.032 0.031-0.046 0.017-0.025 0.035-0.049 0.053-0.073 0.010-0.013 0.019-0.027 0.029-0.040 0.024-0.031 0.049-0.062 0.074-0.092 0.004-0.006 0.008-0.011 0.013-0.016 0.030-0.035 0.061-0.070 0.092-0.104 0.010-0.011 0.020-0.021 0.030-0.032 0.022-0.023 0.044-0.046 0.067-0.068 0.013-0.013 0.026-0.025 0.040-0.037 0.021-0.020 0.041-0.039 0.063-0.058 0.014-0.013 0.029-0.025 0.044-0.038 0.021-0.018 0.042-0.035 0.063-0.053 0.015-0.013 0.031-0.025 0.046-0.037 0.021-0.017 0.043-0.033 0.065-0.050 0.016-0.012 0.032-0.024 0.048-0.035 0.022-0.016 0.045-0.032 0.067-0.047 0.017-0.011 0.033-0.022 0.049-0.033 0.024-0.016 0.048-0.031 0.072-0.045 0.016-0.010 0.032-0.020 0.048-0.029 0.027-0.016 0.054-0.031 0.081-0.046 0.014-0.008 0.028-0.016 0.042-0.023 0.038-0.020 0.077-0.040 0.117-0.058 0.003-0.002 0.006-0.004 0.010-0.005 0.043-0.020 0.086-0.039 0.13-0.057 0.014-0.006 0.029-0.011 0.043-0.017 0.030-0.012 0.060-0.024 0.091-0.035 0.017-0.006 0.035-0.012 0.053-0.018 0.027-0.009 0.055-0.019 0.084-0.028 0.019-0.006 0.038-0.011 0.057-0.017 0.027-0.008 0.055-0.016 0.082-0.023 0.020-0.005 0.040-0.010 0.060-0.015 0.027-0.007 0.055-0.013 0.083-0.018 0.020-0.004 0.040-0.009 0.061-0.013 0.028-0.005 0.056-0.010 0.085-0.015 0.020-0.004 0.040-0.007 0.061-0.009 0.029-0.004 0.059-0.008 0.090-0.011 0.019-0.002 0.038-0.005 0.058-0.006 0.033-0.003 0.067-0.006 0.1-0.007 0.016-0.001 0.033-0.003 0.049-0.003 0.050-0.003 0.1-0.004 0.151-0.004s0.101 0.001 0.151 0.004c0.017 0 0.033 0.002 0.049 0.003 0.033 0.002 0.067 0.004 0.1 0.007 0.019 0.002 0.039 0.004 0.058 0.006 0.030 0.004 0.060 0.007 0.090 0.011 0.021 0.003 0.040 0.006 0.060 0.009 0.029 0.004 0.057 0.009 0.085 0.015 0.021 0.004 0.041 0.008 0.061 0.013 0.028 0.006 0.055 0.012 0.083 0.018 0.020 0.005 0.040 0.010 0.060 0.015 0.027 0.007 0.055 0.015 0.082 0.023 0.019 0.006 0.038 0.011 0.057 0.017 0.028 0.009 0.056 0.018 0.084 0.028 0.018 0.006 0.036 0.012 0.053 0.018 0.031 0.011 0.061 0.023 0.091 0.035 0.014 0.006 0.029 0.011 0.043 0.017 0.044 0.018 0.087 0.037 0.13 0.057 0.004 0.002 0.007 0.003 0.010 0.005 0.040 0.019 0.078 0.038 0.117 0.058 0.014 0.007 0.028 0.015 0.042 0.023 0.027 0.015 0.054 0.030 0.081 0.046 0.016 0.009 0.032 0.019 0.048 0.029 0.024 0.015 0.048 0.030 0.072 0.045 0.016 0.011 0.032 0.022 0.049 0.033 0.023 0.015 0.045 0.031 0.067 0.047 0.016 0.011 0.032 0.023 0.048 0.035 0.022 0.016 0.044 0.033 0.065 0.050 0.016 0.012 0.031 0.025 0.046 0.037 0.021 0.017 0.042 0.035 0.063 0.053 0.015 0.013 0.029 0.025 0.044 0.038 0.021 0.019 0.042 0.039 0.063 0.059 0.013 0.012 0.026 0.024 0.039 0.037 0.023 0.022 0.045 0.046 0.067 0.069 0.010 0.010 0.020 0.020 0.030 0.031 0.031 0.034 0.062 0.068 0.092 0.104 0.004 0.005 0.008 0.010 0.012 0.015 0.025 0.031 0.051 0.062 0.075 0.094 0.010 0.013 0.019 0.026 0.029 0.039 0.018 0.024 0.036 0.049 0.054 0.074 0.010 0.015 0.021 0.031 0.031 0.046 0.016 0.023 0.031 0.046 0.046 0.070 0.010 0.017 0.021 0.033 0.031 0.050 0.014 0.023 0.028 0.047 0.042 0.070 0.010 0.017 0.019 0.035 0.029 0.052 0.013 0.024 0.026 0.048 0.038 0.072 0.009 0.018 0.017 0.035 0.026 0.053 0.012 0.025 0.023 0.050 0.035 0.076 0.008 0.017 0.016 0.035 0.023 0.052 0.012 0.027 0.022 0.054 0.033 0.081 0.006 0.016 0.013 0.033 0.019 0.050 0.012 0.031 0.022 0.063 0.033 0.095 0.004 0.013 0.009 0.026 0.013 0.039 0.014 0.045 0.027 0.091 0.040 0.136 0.002 0.007 0.003 0.015 0.005 0.022 0.010 0.039 0.019 0.078 0.028 0.117 0.004 0.016 0.006 0.032 0.009 0.048 0.005 0.025 0.010 0.049 0.015 0.074h8.717v-14.625c0-0.272 0.226-0.492 0.504-0.492h7.293c0.012 0 0.051 0 0.075-0.044s0.003-0.074-0.004-0.084l-1.578-2.31c-0.153-0.224-0.408-0.357-0.684-0.357h-13.172c-0.073 0-0.142 0.028-0.195 0.079l-0.834 0.814c-0.242 0.237-0.565 0.367-0.908 0.367h-8.686c-0.45 0-0.817 0.357-0.817 0.797v12.627z"></path>
<path d="M3.875 9.838h6.17c0.713 0 1.293 0.566 1.293 1.262v2.87c0 0.696-0.58 1.262-1.293 1.262h-6.17c-0.713 0-1.293-0.566-1.293-1.262v-2.87c0-0.696 0.581-1.262 1.294-1.262zM3.591 13.97c0 0.153 0.127 0.278 0.284 0.278h6.17c0.157 0 0.284-0.124 0.284-0.278v-2.87c0-0.153-0.128-0.278-0.284-0.278h-6.17c-0.157 0-0.284 0.124-0.284 0.278l0 2.87z"></path>
</symbol>
<symbol id="icon-cd" viewBox="0 0 32 32">
<path stroke-linejoin="miter" stroke-linecap="butt" stroke-miterlimit="4" stroke-width="2.4" d="M16 28c6.627 0 12-5.373 12-12s-5.373-12-12-12c-6.627 0-12 5.373-12 12s5.373 12 12 12z"></path>
<path stroke-linejoin="miter" stroke-linecap="round" stroke-miterlimit="4" stroke-width="2.4" d="M8.667 16c0-4.050 3.283-7.333 7.333-7.333"></path>
<path stroke-linejoin="miter" stroke-linecap="butt" stroke-miterlimit="4" stroke-width="2.4" d="M16 19.333c1.841 0 3.333-1.492 3.333-3.333s-1.492-3.333-3.333-3.333c-1.841 0-3.333 1.492-3.333 3.333s1.492 3.333 3.333 3.333z"></path>
</symbol>
<symbol id="icon-conditioner" viewBox="0 0 32 32">
<path stroke-linejoin="round" stroke-linecap="round" stroke-miterlimit="4" stroke-width="2.4" d="M28.571 1.143h-25.143c-0.606 0-1.188 0.241-1.616 0.669s-0.669 1.010-0.669 1.616v11.429c0 0.606 0.241 1.188 0.669 1.616s1.010 0.669 1.616 0.669h25.143c0.606 0 1.188-0.241 1.616-0.669s0.67-1.010 0.67-1.616v-11.429c0-0.606-0.241-1.188-0.67-1.616s-1.010-0.669-1.616-0.669z"></path>
<path stroke-linejoin="round" stroke-linecap="round" stroke-miterlimit="4" stroke-width="2.4" d="M25.143 17.143v-4.571c0-0.606-0.241-1.188-0.67-1.616s-1.010-0.669-1.616-0.669h-13.714c-0.606 0-1.188 0.241-1.616 0.669s-0.669 1.010-0.669 1.616v4.571M5.714 28.572h0.229c0.849 0 1.663-0.337 2.263-0.937s0.937-1.414 0.937-2.263v-2.514M26.286 28.572h-0.229c-0.849 0-1.663-0.337-2.263-0.937s-0.937-1.414-0.937-2.263v-2.514M16 30.857v-8"></path>
</symbol>
<symbol id="icon-freezer" viewBox="0 0 32 32">
<path stroke-linejoin="round" stroke-linecap="round" stroke-miterlimit="4" stroke-width="2.0800" d="M23.4 3h-14.793c-1.105 0-2 0.895-2 2v20.387c0 1.104 0.895 2 2 2h14.793c1.104 0 2-0.896 2-2v-20.387c0-1.105-0.896-2-2-2z"></path>
<path stroke-linejoin="round" stroke-linecap="round" stroke-miterlimit="4" stroke-width="2.0800" d="M6.607 13.127h18.787M10.313 10.567v-4.040M10.313 19.44v-4.040M8.427 27.387v0.7c0 0.241 0.095 0.472 0.265 0.643s0.4 0.268 0.642 0.27h1.647c0.242 0 0.475-0.096 0.646-0.268s0.268-0.404 0.268-0.646v-0.7M20.1 27.387v0.7c0 0.242 0.096 0.474 0.268 0.646s0.404 0.268 0.646 0.268h1.653c0.242 0 0.474-0.096 0.646-0.268s0.268-0.404 0.268-0.646v-0.7"></path>
</symbol>
<symbol id="icon-gas" viewBox="0 0 32 32">
<path d="M25.072 13.991c-0.368-0.453-0.816-0.846-1.232-1.239-1.072-0.907-2.288-1.556-3.311-2.508-2.384-2.206-2.912-5.848-1.392-8.644-1.52 0.348-2.848 1.133-3.983 1.995-4.143 3.143-5.775 8.689-3.823 13.449 0.064 0.151 0.128 0.302 0.128 0.499 0 0.332-0.24 0.635-0.56 0.756-0.368 0.151-0.752 0.060-1.056-0.181-0.091-0.071-0.167-0.159-0.224-0.257-1.808-2.161-2.096-5.259-0.88-7.737-2.672 2.055-4.127 5.531-3.919 8.81 0.096 0.756 0.192 1.511 0.464 2.267 0.224 0.907 0.656 1.813 1.136 2.614 1.728 2.614 4.719 4.488 7.935 4.866 3.423 0.408 7.087-0.181 9.71-2.418 2.927-2.508 3.951-6.528 2.448-9.974l-0.208-0.393c-0.336-0.695-1.232-1.904-1.232-1.904zM20.017 23.512c-0.448 0.363-1.184 0.756-1.76 0.907-1.792 0.604-3.583-0.242-4.639-1.239 1.904-0.423 3.039-1.753 3.375-3.098 0.272-1.209-0.24-2.206-0.448-3.37-0.192-1.118-0.16-2.070 0.272-3.113 0.304 0.574 0.624 1.148 1.008 1.602 1.232 1.511 3.167 2.176 3.583 4.231 0.064 0.212 0.096 0.423 0.096 0.65 0.048 1.239-0.528 2.599-1.488 3.43z"></path>
</symbol>

<symbol id="icon-heart" viewBox="0 0 32 32">
  <path id="Vector" d="M18.65 1.56C17.98 1.29 17.27 1.14 16.55 1.14C15.82 1.14 15.11 1.29 14.44 1.56C13.77 1.84 13.17 2.25 12.66 2.76L11.6 3.82L10.54 2.76C9.5 1.73 8.11 1.15 6.65 1.15C5.19 1.15 3.79 1.73 2.76 2.76C1.72 3.79 1.14 5.19 1.14 6.65C1.14 8.11 1.72 9.51 2.76 10.54L3.82 11.6L11.6 19.38L19.38 11.6L20.44 10.54C20.95 10.03 21.35 9.42 21.63 8.75C21.91 8.08 22.05 7.37 22.05 6.65C22.05 5.92 21.91 5.21 21.63 4.54C21.35 3.87 20.95 3.27 20.44 2.76C19.93 2.25 19.32 1.84 18.65 1.56Z" stroke="#101828" stroke-opacity="1.000000" stroke-width="2.300000" stroke-linejoin="round"/>
</symbol>

<symbol id="icon-hob" viewBox="0 0 32 32">
<path fill="none" stroke="#101828" style="stroke: var(--color2, #101828)" stroke-linejoin="miter" stroke-linecap="butt" stroke-miterlimit="4" stroke-width="2.4" d="M12 6.667h16c0.354 0 0.693 0.14 0.943 0.391s0.391 0.589 0.391 0.943v17.333c0 0.354-0.14 0.693-0.391 0.943s-0.589 0.391-0.943 0.391h-16M12 6.667h-8c-0.354 0-0.693 0.14-0.943 0.391s-0.39 0.589-0.39 0.943v17.333c0 0.354 0.14 0.693 0.39 0.943s0.589 0.391 0.943 0.391h8M12 6.667v20"></path>
<path fill="none" stroke="#101828" style="stroke: var(--color2, #101828)" stroke-linejoin="round" stroke-linecap="round" stroke-miterlimit="4" stroke-width="2.4" d="M7.333 11.333v2.667M24.667 10.667l-8 11.333"></path>
<path d="M8.667 18c0-0.736-0.597-1.333-1.333-1.333s-1.333 0.597-1.333 1.333c0 0.736 0.597 1.333 1.333 1.333s1.333-0.597 1.333-1.333z"></path>
<path d="M8.667 22c0-0.736-0.597-1.333-1.333-1.333s-1.333 0.597-1.333 1.333c0 0.736 0.597 1.333 1.333 1.333s1.333-0.597 1.333-1.333z"></path>
</symbol>
<symbol id="icon-kitchen" viewBox="0 0 32 32">
<path stroke-linejoin="round" stroke-linecap="round" stroke-miterlimit="4" stroke-width="2.4" d="M25.333 20v-16c-6.421 6.125-6.697 11.092-6.667 16h6.667zM25.333 20v8h-1.333v-4M10.667 5.333v22.667M6.667 5.333v4c0 1.061 0.421 2.078 1.172 2.828s1.768 1.172 2.828 1.172c1.061 0 2.078-0.421 2.828-1.172s1.172-1.768 1.172-2.828v-4"></path>
</symbol>
<symbol id="icon-korobka" viewBox="0 0 32 32">
<path stroke-linejoin="round" stroke-linecap="round" stroke-miterlimit="4" stroke-width="2.4" d="M22.667 14.667h2c0.53 0 1.039-0.211 1.414-0.586s0.586-0.884 0.586-1.414-0.211-1.039-0.586-1.414c-0.375-0.375-0.884-0.586-1.414-0.586h-2v6.667M22.667 22.667v5.333h1.333c0.707 0 1.386-0.281 1.886-0.781s0.781-1.178 0.781-1.886c0-0.707-0.281-1.385-0.781-1.886s-1.178-0.781-1.886-0.781h-1.333zM4 6.667c0 0.707 0.281 1.386 0.781 1.886s1.178 0.781 1.886 0.781c0.707 0 1.386-0.281 1.886-0.781s0.781-1.178 0.781-1.886c0-0.707-0.281-1.386-0.781-1.886s-1.178-0.781-1.886-0.781c-0.707 0-1.386 0.281-1.886 0.781s-0.781 1.178-0.781 1.886z"></path>
<path stroke-linejoin="round" stroke-linecap="round" stroke-miterlimit="4" stroke-width="2.4" d="M6.667 9.333v4c0 0.354 0.14 0.693 0.391 0.943s0.589 0.391 0.943 0.391h4M12 14.667v9.333c0 0.354 0.14 0.693 0.391 0.943s0.589 0.39 0.943 0.39h4M12 14.667h5.333"></path>
</symbol>

<symbol id="icon-microwave" viewBox="0 0 32 32">
<path stroke-linejoin="round" stroke-linecap="round" stroke-miterlimit="4" stroke-width="2.24" d="M29.714 5.714h-27.429c-0.303 0-0.594 0.12-0.808 0.335s-0.335 0.505-0.335 0.808v18.286c0 0.303 0.12 0.594 0.335 0.808s0.505 0.335 0.808 0.335h27.429c0.303 0 0.594-0.12 0.808-0.335s0.335-0.505 0.335-0.808v-18.286c0-0.303-0.12-0.594-0.335-0.808s-0.505-0.335-0.808-0.335z"></path>
<path stroke-linejoin="round" stroke-linecap="round" stroke-miterlimit="4" stroke-width="2.24" d="M25.143 11.428h1.143M25.143 16h1.143M19.428 10.286h-12.571c-0.303 0-0.594 0.12-0.808 0.335s-0.335 0.505-0.335 0.808v9.143c0 0.303 0.12 0.594 0.335 0.808s0.505 0.335 0.808 0.335h12.571c0.303 0 0.594-0.12 0.808-0.335s0.335-0.505 0.335-0.808v-9.143c0-0.303-0.12-0.594-0.335-0.808s-0.505-0.335-0.808-0.335z"></path>
</symbol>
<symbol id="icon-petrol" viewBox="0 0 32 32">
<path d="M26.36 9.64l0.013-0.013-4.96-4.96-1.413 1.413 2.813 2.813c-1.253 0.48-2.147 1.68-2.147 3.107 0 0.438 0.086 0.871 0.254 1.276s0.413 0.772 0.723 1.081c0.625 0.625 1.473 0.976 2.357 0.976 0.48 0 0.92-0.107 1.333-0.28v9.613c0 0.354-0.14 0.693-0.391 0.943s-0.589 0.391-0.943 0.391c-0.354 0-0.693-0.14-0.943-0.391s-0.391-0.589-0.391-0.943v-6c0-0.707-0.281-1.386-0.781-1.886s-1.178-0.781-1.886-0.781h-1.333v-9.333c0-0.707-0.281-1.386-0.781-1.886s-1.178-0.781-1.886-0.781h-8c-0.707 0-1.386 0.281-1.886 0.781s-0.781 1.178-0.781 1.886v21.333h13.333v-10h2v6.667c0 0.884 0.351 1.732 0.976 2.357s1.473 0.976 2.357 0.976c0.438 0 0.871-0.086 1.276-0.254s0.772-0.413 1.081-0.723c0.309-0.309 0.555-0.677 0.723-1.081s0.254-0.838 0.254-1.276v-12.667c0-0.92-0.373-1.76-0.973-2.36zM16 18v7.333h-8v-9.333h8v2zM16 13.333h-8v-6.667h8v6.667zM24 13.333c-0.354 0-0.693-0.14-0.943-0.39s-0.391-0.589-0.391-0.943 0.14-0.693 0.391-0.943c0.25-0.25 0.589-0.39 0.943-0.39s0.693 0.14 0.943 0.39c0.25 0.25 0.391 0.589 0.391 0.943s-0.14 0.693-0.391 0.943c-0.25 0.25-0.589 0.39-0.943 0.39z"></path>
</symbol>
<symbol id="icon-radio" viewBox="0 0 32 32">
<path stroke-linejoin="miter" stroke-linecap="butt" stroke-miterlimit="4" stroke-width="2.0800" d="M2.667 18.667c0-5.028 0-7.543 1.563-9.104 1.561-1.563 4.076-1.563 9.104-1.563h5.333c5.028 0 7.543 0 9.104 1.563 1.563 1.561 1.563 4.076 1.563 9.104s0 7.543-1.563 9.104c-1.561 1.563-4.076 1.563-9.104 1.563h-5.333c-5.028 0-7.543 0-9.104-1.563-1.563-1.561-1.563-4.076-1.563-9.104z"></path>
<path stroke-linejoin="miter" stroke-linecap="butt" stroke-miterlimit="4" stroke-width="2.0800" d="M6.667 14.667c0-0.707 0.281-1.386 0.781-1.886s1.178-0.781 1.886-0.781h13.333c0.707 0 1.386 0.281 1.886 0.781s0.781 1.178 0.781 1.886-0.281 1.386-0.781 1.886c-0.5 0.5-1.178 0.781-1.886 0.781h-13.333c-0.707 0-1.386-0.281-1.886-0.781s-0.781-1.178-0.781-1.886zM12 22.667c0 0.53-0.211 1.039-0.586 1.414s-0.884 0.586-1.414 0.586-1.039-0.211-1.414-0.586c-0.375-0.375-0.586-0.884-0.586-1.414s0.211-1.039 0.586-1.414 0.884-0.586 1.414-0.586c0.53 0 1.039 0.211 1.414 0.586s0.586 0.884 0.586 1.414z"></path>
<path stroke-linejoin="miter" stroke-linecap="round" stroke-miterlimit="4" stroke-width="2.0800" d="M20 15.333v2M17.333 22.667h6.667M8.667 8l11.333-5.333"></path>
</symbol>
<symbol id="icon-Route" viewBox="0 0 32 32">
<path d="M9.333 2.857c-1.052 0-1.905 0.853-1.905 1.905s0.853 1.905 1.905 1.905c1.052 0 1.905-0.853 1.905-1.905s-0.853-1.905-1.905-1.905zM5.524 4.762c0-2.104 1.706-3.81 3.81-3.81s3.809 1.706 3.809 3.81-1.706 3.81-3.809 3.81c-2.104 0-3.81-1.706-3.81-3.81z"></path>
<path d="M22.667 16.191c-1.052 0-1.905 0.853-1.905 1.905s0.853 1.905 1.905 1.905c1.052 0 1.905-0.853 1.905-1.905s-0.853-1.905-1.905-1.905zM18.857 18.095c0-2.104 1.706-3.809 3.809-3.809s3.81 1.706 3.81 3.809c0 2.104-1.706 3.81-3.81 3.81s-3.809-1.706-3.809-3.81z"></path>
<path d="M14.095 4.762c0-0.526 0.426-0.952 0.952-0.952h6c2.95 0 4.014 3.86 1.419 5.306l-11.052 6.288c-0.828 0.46-0.558 1.739 0.49 1.739h5.048c0.526 0 0.952 0.426 0.952 0.952s-0.426 0.952-0.952 0.952h-5.048c-2.95 0-4.014-3.86-1.419-5.306l11.052-6.288c0.828-0.46 0.558-1.739-0.49-1.739h-6c-0.526 0-0.952-0.426-0.952-0.952z"></path>
</symbol>
<symbol id="icon-shower" viewBox="0 0 32 32">
<path stroke-linejoin="round" stroke-linecap="round" stroke-miterlimit="4" stroke-width="2" d="M5.333 5.333l3.333 3.333M18 8.667c-1.242-1.217-2.914-1.895-4.653-1.886s-3.404 0.703-4.634 1.933-1.924 2.895-1.933 4.634c-0.009 1.739 0.669 3.411 1.886 4.653M20 6.667l-13.333 13.333M18.667 22.667v0.013M13.333 21.333v0.013M17.333 17.333v0.013M21.333 13.333v0.013M14.667 26.667v0.013M22.667 18.667v0.013M26.667 14.667v0.013"></path>
</symbol>
<symbol id="icon-toilet" viewBox="0 0 32 32">
<path d="M24 4c1.939 0 3.269 1.647 4.040 3.313 0.761 1.653 1.224 3.811 1.287 6.145l0.007 0.541v12.667c0 0.18-0.036 0.357-0.106 0.523s-0.173 0.315-0.303 0.439c-0.13 0.125-0.283 0.222-0.451 0.285s-0.347 0.093-0.527 0.086l-0.165-0.019-3.781-0.629-3.781 0.629c-0.16 0.027-0.324 0.024-0.483-0.008l-0.157-0.041-3.579-1.193-3.579 1.193c-0.188 0.063-0.387 0.083-0.583 0.059s-0.385-0.092-0.552-0.197-0.309-0.248-0.414-0.415c-0.105-0.167-0.172-0.356-0.196-0.553l-0.009-0.159v-3.903c-0.708 0.733-1.595 1.236-2.667 1.236-1.939 0-3.269-1.647-4.040-3.313-0.819-1.78-1.293-4.145-1.293-6.687s0.473-4.907 1.293-6.687c0.735-1.592 1.981-3.164 3.78-3.303l0.26-0.011h16zM24 6.667h-12.291c0.12 0.213 0.229 0.429 0.329 0.647 0.821 1.78 1.295 4.145 1.295 6.687v10.817l2.245-0.749c0.274-0.091 0.569-0.091 0.843 0l3.687 1.229 3.673-0.613c0.144-0.024 0.293-0.024 0.437 0l2.448 0.409v-11.093c0-2.245-0.423-4.213-1.049-5.569-0.677-1.471-1.347-1.764-1.617-1.764zM8 6.667c-0.271 0-0.94 0.293-1.617 1.764-0.627 1.356-1.049 3.324-1.049 5.569s0.423 4.213 1.049 5.569c0.677 1.471 1.347 1.764 1.617 1.764s0.94-0.293 1.617-1.764c0.627-1.356 1.049-3.324 1.049-5.569s-0.423-4.213-1.049-5.569c-0.677-1.471-1.347-1.764-1.617-1.764zM8 11.333c0.736 0 1.333 1.193 1.333 2.667s-0.597 2.667-1.333 2.667c-0.736 0-1.333-1.193-1.333-2.667s0.597-2.667 1.333-2.667z"></path>
</symbol>
<symbol id="icon-tv" viewBox="0 0 32 32">
<path stroke-linejoin="round" stroke-linecap="round" stroke-miterlimit="4" stroke-width="1.8" d="M24 26h-16c-2.216 0-4-1.784-4-4v-10c0-2.216 1.784-4 4-4h16c2.216 0 4 1.784 4 4v10c0 2.216-1.784 4-4 4z"></path>
<path stroke-linejoin="round" stroke-linecap="round" stroke-miterlimit="4" stroke-width="1.8" d="M12 30h8"></path>
<path stroke-linejoin="round" stroke-linecap="round" stroke-miterlimit="4" stroke-width="1.8" d="M16 8l6-6"></path>
<path stroke-linejoin="round" stroke-linecap="round" stroke-miterlimit="4" stroke-width="1.8" d="M16 8l-6-6"></path>
</symbol>
<symbol id="icon-users" viewBox="0 0 32 32">
<path d="M9.067 24.133h-4.4c-0.267 0-0.4-0.133-0.533-0.267s-0.267-0.4-0.133-0.667c0.8-2.267 2.8-3.6 5.067-3.6 2.8 0 5.067-2.4 5.067-5.2s-2.267-5.467-5.067-5.467c-2.8 0-5.067 2.4-5.067 5.333 0 1.333 0.533 2.667 1.333 3.6-1.733 0.933-3.067 2.4-3.867 4.4-0.267 0.933-0.133 2.133 0.533 3.067s1.6 1.467 2.667 1.467h4.4c0.8 0 1.333-0.533 1.333-1.333s-0.533-1.333-1.333-1.333zM6.667 14.267c0-1.467 1.067-2.533 2.4-2.533s2.4 1.2 2.4 2.533c0 1.467-1.067 2.533-2.4 2.533s-2.4-1.2-2.4-2.533z"></path>
<path d="M30.533 21.467c-0.933-2.533-2.8-4.4-4.933-5.467 1.2-1.067 1.867-2.667 1.867-4.533 0-3.467-2.667-6.267-5.867-6.267s-5.867 2.8-5.867 6.267c0 1.733 0.667 3.333 1.867 4.533-2.133 1.067-4 2.933-4.933 5.467-0.667 1.2-0.4 2.533 0.267 3.6s1.867 1.6 3.067 1.6h11.067c1.2 0 2.4-0.667 3.067-1.6 0.8-1.067 0.933-2.4 0.4-3.6zM18.267 11.6c0-2 1.467-3.6 3.2-3.6s3.2 1.6 3.2 3.6-1.467 3.6-3.2 3.6c-1.733 0-3.2-1.733-3.2-3.6zM27.867 23.6c-0.133 0.133-0.4 0.533-0.8 0.533h-11.067c-0.533 0-0.8-0.4-0.8-0.533-0.133-0.133-0.4-0.667-0.133-1.2 1.067-2.8 3.733-4.667 6.533-4.667s5.467 1.867 6.533 4.667c0.133 0.533-0.133 1.067-0.267 1.2z"></path>
</symbol>
<symbol id="icon-water" viewBox="0 0 32 32">
<path stroke-linejoin="miter" stroke-linecap="butt" stroke-miterlimit="10" stroke-width="2.4" d="M25 20c0 5.523-3.477 9-9 9s-9-3.477-9-9c0-5.927 6.452-13.928 8.431-16.242 0.070-0.082 0.158-0.148 0.256-0.194s0.205-0.069 0.314-0.069c0.108 0 0.215 0.023 0.314 0.069s0.186 0.111 0.256 0.194c1.978 2.314 8.43 10.316 8.43 16.242z"></path>
<path stroke-linejoin="round" stroke-linecap="round" stroke-miterlimit="4" stroke-width="2.4" d="M21.5 20.5c0 1.193-0.474 2.338-1.318 3.182s-1.988 1.318-3.182 1.318"></path>
</symbol>


<symbol id="icon-wind1" viewBox="0 0 32 32">
	<path id="Text" d="M42.51 5.15C42.51 5.91 41.84 6.54 41.02 6.54C40.2 6.54 39.53 5.91 39.53 5.15C39.53 4.37 40.2 3.75 41.02 3.75C41.84 3.75 42.51 4.37 42.51 5.15ZM117.81 5.15C117.81 5.91 117.15 6.54 116.33 6.54C115.51 6.54 114.84 5.91 114.84 5.15C114.84 4.37 115.51 3.75 116.33 3.75C117.15 3.75 117.81 4.37 117.81 5.15ZM1.48 4.45L4.37 4.45L8.16 15.9L8.31 15.9L12.09 4.45L14.98 4.45L9.86 19L6.61 19L1.48 4.45ZM32.4 10.12C31.02 10.12 30.04 11.03 30.04 12.6L30.04 19L27.47 19L27.47 4.45L29.98 4.45L29.98 9.94L30.12 9.94C30.62 8.7 31.68 7.95 33.36 7.95C35.62 7.95 37.12 9.41 37.12 12.05L37.12 19L34.54 19L34.54 12.45C34.54 10.98 33.75 10.12 32.4 10.12ZM56.49 4.45L59.06 4.45L59.06 19L56.49 19L56.49 4.45ZM178.04 8.09L180.19 8.09L180.19 10.07L178.04 10.07L178.04 15.71C178.04 16.75 178.56 16.98 179.21 16.98C179.52 16.98 179.82 16.91 179.96 16.88L180.39 18.89C180.11 18.98 179.61 19.12 178.88 19.15C176.94 19.2 175.46 18.19 175.47 16.14L175.47 10.07L173.92 10.07L173.92 8.09L175.47 8.09L175.47 5.47L178.04 5.47L178.04 8.09ZM25.19 16.07C24.74 17.96 22.99 19.21 20.45 19.21C17.16 19.21 15.15 17.03 15.15 13.6C15.15 10.24 17.19 7.95 20.31 7.95C23 7.95 25.3 9.62 25.3 13.45L25.3 14.24L17.7 14.24C17.72 16.11 18.82 17.2 20.48 17.2C21.59 17.2 22.44 16.72 22.79 15.8L25.19 16.07ZM54.37 15.26C54.19 17.58 52.45 19.21 49.7 19.21C46.44 19.21 44.48 16.89 44.48 13.58C44.48 10.25 46.49 7.95 49.69 7.95C52.35 7.95 54.2 9.5 54.37 11.87L51.92 11.87C51.72 10.81 50.96 10.02 49.72 10.02C48.14 10.02 47.08 11.34 47.08 13.54C47.08 15.77 48.12 17.12 49.72 17.12C50.85 17.12 51.7 16.44 51.92 15.26L54.37 15.26ZM71.28 16.07C70.82 17.96 69.08 19.21 66.54 19.21C63.25 19.21 61.24 17.03 61.24 13.6C61.24 10.24 63.27 7.95 66.4 7.95C69.09 7.95 71.39 9.62 71.39 13.45L71.39 14.24L63.79 14.24C63.81 16.11 64.91 17.2 66.57 17.2C67.68 17.2 68.53 16.72 68.88 15.8L71.28 16.07ZM88.1 16.07C87.64 17.96 85.89 19.21 83.35 19.21C80.06 19.21 78.06 17.03 78.06 13.6C78.06 10.24 80.09 7.95 83.22 7.95C85.9 7.95 88.2 9.62 88.2 13.45L88.2 14.24L80.61 14.24C80.63 16.11 81.73 17.2 83.39 17.2C84.5 17.2 85.35 16.72 85.7 15.8L88.1 16.07ZM100.23 23.09L97.65 23.09L97.65 17.28L97.55 17.28C97.15 18.07 96.3 19.19 94.43 19.19C91.85 19.19 89.93 17.15 89.93 13.56C89.93 9.92 91.91 7.95 94.43 7.95C96.36 7.95 97.16 9.1 97.55 9.89L97.71 9.89L97.71 8.09L100.23 8.09L100.23 23.09ZM122.82 23.09L120.25 23.09L120.25 8.09L122.78 8.09L122.78 9.89L122.93 9.89C123.32 9.1 124.12 7.95 126.04 7.95C128.57 7.95 130.55 9.92 130.55 13.56C130.55 17.15 128.62 19.19 126.05 19.19C124.18 19.19 123.33 18.07 122.93 17.28L122.82 17.28L122.82 23.09ZM135.31 19L132.74 19L132.74 8.09L135.2 8.09L135.2 9.94L135.33 9.94C135.78 8.7 136.88 7.95 138.34 7.95C139.81 7.95 140.87 8.7 141.28 9.94L141.4 9.94C141.89 8.73 143.09 7.95 144.67 7.95C146.67 7.95 148.08 9.23 148.08 11.67L148.08 19L145.5 19L145.5 12.07C145.5 10.72 144.68 10.11 143.64 10.11C142.4 10.11 141.67 10.96 141.67 12.19L141.67 19L139.15 19L139.15 11.96C139.15 10.84 138.4 10.11 137.32 10.11C136.21 10.11 135.31 11.02 135.31 12.36L135.31 19ZM160.27 16.07C159.82 17.96 158.07 19.21 155.53 19.21C152.24 19.21 150.23 17.03 150.23 13.6C150.23 10.24 152.27 7.95 155.39 7.95C158.08 7.95 160.38 9.62 160.38 13.45L160.38 14.24L152.78 14.24C152.8 16.11 153.9 17.2 155.56 17.2C156.67 17.2 157.52 16.72 157.87 15.8L160.27 16.07ZM167.43 10.12C166.07 10.12 165.12 11.03 165.12 12.6L165.12 19L162.55 19L162.55 8.09L165.01 8.09L165.01 9.94L165.14 9.94C165.63 8.73 166.76 7.95 168.39 7.95C170.64 7.95 172.13 9.43 172.12 12.05L172.12 19L169.56 19L169.56 12.45C169.56 10.99 168.76 10.12 167.43 10.12ZM42.3 19L39.73 19L39.73 8.09L42.3 8.09L42.3 19ZM107.5 16.89C108.64 16.89 109.83 16.07 109.83 14.41L109.83 8.09L112.39 8.09L112.39 19L109.9 19L109.9 17.06L109.79 17.06C109.29 18.28 108.14 19.14 106.51 19.14C104.36 19.14 102.87 17.65 102.87 15.03L102.87 8.09L105.44 8.09L105.44 14.63C105.44 16.02 106.27 16.89 107.5 16.89ZM117.61 19L115.04 19L115.04 8.09L117.61 8.09L117.61 19ZM20.35 9.95C18.81 9.95 17.78 11.12 17.71 12.51L22.83 12.51C22.82 11.03 21.83 9.95 20.35 9.95ZM66.43 9.95C64.9 9.95 63.87 11.12 63.79 12.51L68.92 12.51C68.9 11.03 67.91 9.95 66.43 9.95ZM83.25 9.95C81.72 9.95 80.69 11.12 80.61 12.51L85.74 12.51C85.72 11.03 84.73 9.95 83.25 9.95ZM155.42 9.95C153.89 9.95 152.86 11.12 152.78 12.51L157.91 12.51C157.9 11.03 156.91 9.95 155.42 9.95ZM92.55 13.54C92.55 15.59 93.45 17.08 95.15 17.08C96.79 17.08 97.71 15.66 97.71 13.54C97.71 11.42 96.8 10.05 95.15 10.05C93.43 10.05 92.55 11.51 92.55 13.54ZM125.33 10.05C123.68 10.05 122.77 11.42 122.77 13.54C122.77 15.66 123.69 17.08 125.33 17.08C127.03 17.08 127.93 15.59 127.93 13.54C127.93 11.51 127.05 10.05 125.33 10.05Z" fill="#101828" fill-opacity="1.000000" fill-rule="evenodd"/>
	<path id="Vector 1" d="M1 48L361 48" stroke="#101828" stroke-opacity="0.100000" stroke-width="1.000000"/>
	<g style="mix-blend-mode:multiply">
		<rect id="Vertical container" rx="-0.500000" width="31.000000" height="31.000000" transform="translate(41.500000 90.000000)" fill="#FFFFFF" fill-opacity="0"/>
		<path id="Vector" d="M56.55 94.3C55.2 94.3 53.89 94.78 52.84 95.65C51.8 96.53 51.08 97.75 50.82 99.11L50.71 99.65C50.69 99.77 50.68 99.9 50.7 100.02C50.72 100.14 50.77 100.26 50.83 100.36C50.9 100.47 50.98 100.56 51.08 100.63C51.18 100.7 51.29 100.75 51.41 100.77C51.53 100.79 51.65 100.79 51.77 100.77C51.89 100.74 52 100.69 52.1 100.62C52.2 100.55 52.28 100.46 52.35 100.36C52.41 100.25 52.46 100.14 52.48 100.01L52.58 99.48C52.78 98.47 53.34 97.57 54.15 96.96C54.95 96.35 55.95 96.07 56.95 96.17C57.95 96.28 58.87 96.75 59.54 97.51C60.22 98.27 60.59 99.27 60.6 100.29C60.6 101.4 60.17 102.45 59.41 103.23C58.65 104.01 57.62 104.45 56.55 104.45L43.5 104.45C43.26 104.45 43.03 104.55 42.86 104.72C42.69 104.89 42.6 105.13 42.6 105.37C42.6 105.62 42.69 105.85 42.86 106.03C43.03 106.2 43.26 106.3 43.5 106.3L56.55 106.3C58.07 106.26 59.52 105.61 60.59 104.49C61.66 103.37 62.25 101.86 62.25 100.3C62.25 98.73 61.66 97.23 60.59 96.11C59.53 94.98 58.08 94.33 56.55 94.3ZM66.9 102.6C65.7 102.6 64.56 103.09 63.71 103.95C62.87 104.82 62.4 105.99 62.4 107.22C62.4 107.46 62.49 107.7 62.66 107.87C62.83 108.04 63.06 108.14 63.3 108.14C63.53 108.14 63.76 108.04 63.93 107.87C64.1 107.7 64.2 107.46 64.2 107.22C64.2 106.67 64.35 106.14 64.65 105.68C64.95 105.22 65.37 104.87 65.86 104.66C66.36 104.45 66.9 104.4 67.42 104.5C67.95 104.61 68.43 104.87 68.8 105.26C69.18 105.65 69.44 106.14 69.54 106.68C69.65 107.22 69.59 107.77 69.39 108.28C69.19 108.78 68.84 109.22 68.4 109.52C67.95 109.83 67.43 109.99 66.9 109.99L43.5 109.99C43.26 109.99 43.03 110.09 42.86 110.26C42.69 110.43 42.6 110.67 42.6 110.91C42.6 111.16 42.69 111.39 42.86 111.56C43.03 111.74 43.26 111.83 43.5 111.83L61.05 111.83C61.64 111.84 62.21 112.08 62.63 112.51C63.06 112.95 63.29 113.53 63.29 114.15C63.29 114.76 63.05 115.34 62.63 115.78C62.21 116.21 61.63 116.45 61.04 116.45C60.5 116.45 59.98 116.25 59.57 115.9C59.16 115.54 58.88 115.05 58.79 114.51L58.78 114.45C58.77 114.33 58.73 114.21 58.66 114.11C58.6 114 58.52 113.91 58.42 113.83C58.33 113.76 58.22 113.71 58.1 113.68C57.98 113.65 57.86 113.64 57.74 113.67C57.62 113.69 57.51 113.73 57.41 113.8C57.31 113.86 57.22 113.95 57.15 114.05C57.08 114.15 57.03 114.27 57.01 114.39C56.99 114.51 56.98 114.63 57.01 114.75L57.02 114.81C57.18 115.78 57.67 116.67 58.4 117.31C59.14 117.95 60.07 118.3 61.04 118.3C62.11 118.3 63.14 117.86 63.9 117.08C64.66 116.3 65.09 115.24 65.1 114.14C65.1 113.29 64.84 112.49 64.41 111.83L66.9 111.83C68.09 111.83 69.23 111.35 70.08 110.48C70.92 109.62 71.4 108.44 71.4 107.22C71.4 105.99 70.92 104.82 70.08 103.95C69.23 103.09 68.09 102.6 66.9 102.6Z" fill="#101828" fill-opacity="1.000000" fill-rule="nonzero"/>
		<path id="Vector" d="M47.5 104.45L43.5 104.45C43.26 104.45 43.03 104.55 42.86 104.72C42.77 104.81 42.7 104.92 42.65 105.04C42.62 105.15 42.6 105.26 42.6 105.37C42.6 105.62 42.69 105.85 42.86 106.03C43.03 106.2 43.26 106.3 43.5 106.3L56.55 106.3C56.85 106.29 57.15 106.26 57.44 106.2C58.13 106.07 58.79 105.82 59.39 105.46C59.49 105.39 59.59 105.33 59.69 105.26C59.81 105.18 59.93 105.08 60.05 104.99C60.24 104.83 60.42 104.67 60.59 104.49C60.83 104.24 61.04 103.97 61.23 103.68C61.76 102.9 62.09 101.99 62.21 101.05C62.24 100.8 62.25 100.55 62.25 100.3C62.25 99.82 62.2 99.35 62.09 98.89C61.85 97.85 61.33 96.89 60.59 96.11C59.53 94.98 58.08 94.33 56.55 94.3C55.2 94.3 53.89 94.78 52.84 95.65C52.75 95.73 52.65 95.82 52.56 95.9C51.67 96.76 51.06 97.88 50.82 99.11L50.75 99.45L50.71 99.65C50.69 99.77 50.68 99.9 50.7 100.02C50.72 100.14 50.77 100.26 50.83 100.36C50.9 100.47 50.98 100.56 51.08 100.63C51.18 100.7 51.29 100.75 51.41 100.77C51.53 100.79 51.65 100.79 51.77 100.77C51.89 100.74 52 100.69 52.1 100.62C52.2 100.55 52.28 100.46 52.35 100.36C52.41 100.25 52.46 100.14 52.48 100.01L52.58 99.48C52.59 99.47 52.59 99.46 52.59 99.45C52.79 98.45 53.35 97.57 54.15 96.96C54.21 96.92 54.27 96.87 54.33 96.83C54.98 96.4 55.73 96.16 56.5 96.15C56.52 96.15 56.53 96.15 56.55 96.15C56.68 96.15 56.82 96.16 56.95 96.17C57.95 96.28 58.87 96.75 59.54 97.51C60.16 98.21 60.53 99.09 60.59 100.03C60.59 100.11 60.59 100.2 60.6 100.29C60.6 101.4 60.17 102.45 59.41 103.23C58.96 103.69 58.42 104.03 57.84 104.23C57.42 104.37 56.99 104.45 56.55 104.45L47.5 104.45ZM65.24 102.93C64.98 103.03 64.74 103.16 64.5 103.31C64.22 103.49 63.95 103.71 63.71 103.95C63.41 104.26 63.16 104.61 62.96 104.99C62.65 105.55 62.46 106.18 62.41 106.83C62.41 106.87 62.4 106.91 62.4 106.95C62.4 107.04 62.4 107.13 62.4 107.22C62.4 107.24 62.4 107.26 62.4 107.28C62.41 107.5 62.5 107.71 62.66 107.87C62.83 108.04 63.06 108.14 63.3 108.14C63.53 108.14 63.76 108.04 63.93 107.87C64.03 107.77 64.1 107.65 64.15 107.51C64.18 107.42 64.2 107.32 64.2 107.22C64.2 107.09 64.2 106.96 64.22 106.83C64.28 106.42 64.42 106.03 64.65 105.68C64.83 105.41 65.04 105.18 65.3 104.99C65.47 104.86 65.66 104.75 65.86 104.66C66.02 104.59 66.19 104.54 66.36 104.51C66.39 104.5 66.43 104.49 66.47 104.48C66.78 104.43 67.11 104.44 67.42 104.5C67.95 104.61 68.43 104.87 68.8 105.26C69.18 105.65 69.44 106.14 69.54 106.68C69.65 107.22 69.59 107.77 69.39 108.28C69.28 108.56 69.12 108.82 68.92 109.05C68.86 109.12 68.78 109.2 68.71 109.27C68.61 109.36 68.51 109.45 68.4 109.52C68.06 109.75 67.68 109.9 67.29 109.96C67.2 109.97 67.11 109.98 67.02 109.99C66.98 109.99 66.94 109.99 66.9 109.99L43.5 109.99C43.26 109.99 43.03 110.09 42.86 110.26C42.69 110.43 42.6 110.67 42.6 110.91C42.6 111.03 42.62 111.14 42.65 111.24C42.7 111.36 42.77 111.47 42.86 111.56C43.03 111.74 43.26 111.83 43.5 111.83L61.05 111.83C61.64 111.84 62.21 112.08 62.63 112.51C62.81 112.7 62.96 112.91 63.07 113.14C63.15 113.32 63.22 113.52 63.25 113.73C63.26 113.77 63.27 113.81 63.27 113.86C63.29 113.95 63.29 114.05 63.29 114.15C63.29 114.44 63.24 114.72 63.13 114.99C63.02 115.28 62.85 115.55 62.63 115.78C62.33 116.08 61.96 116.29 61.57 116.39C61.39 116.43 61.22 116.45 61.04 116.45C60.5 116.45 59.98 116.25 59.57 115.9C59.28 115.65 59.06 115.34 58.92 114.99C58.86 114.83 58.82 114.67 58.79 114.51L58.78 114.45C58.77 114.33 58.73 114.21 58.66 114.11C58.6 114 58.52 113.91 58.42 113.83C58.39 113.81 58.35 113.78 58.32 113.76C58.25 113.72 58.18 113.7 58.1 113.68C57.98 113.65 57.86 113.64 57.74 113.67C57.62 113.69 57.51 113.73 57.41 113.8C57.31 113.86 57.22 113.95 57.15 114.05C57.08 114.15 57.03 114.27 57.01 114.39C56.99 114.51 56.98 114.63 57.01 114.75L57.02 114.81C57.03 114.87 57.04 114.93 57.05 114.99C57.19 115.67 57.5 116.31 57.94 116.83C58.08 117 58.24 117.16 58.4 117.31C58.84 117.69 59.35 117.97 59.9 118.13C60.27 118.24 60.65 118.3 61.04 118.3C62.11 118.3 63.14 117.86 63.9 117.08C64.09 116.88 64.26 116.67 64.41 116.44C64.7 116 64.9 115.51 65.01 114.99C65.07 114.71 65.09 114.43 65.1 114.14C65.1 113.72 65.03 113.31 64.92 112.93C64.8 112.54 64.63 112.17 64.41 111.83L66.9 111.83C66.93 111.83 66.97 111.83 67 111.83C67.31 111.83 67.61 111.79 67.9 111.72C68.49 111.58 69.05 111.32 69.54 110.95C69.73 110.81 69.91 110.66 70.08 110.48C70.92 109.62 71.4 108.44 71.4 107.22C71.4 105.99 70.92 104.82 70.08 103.95C69.27 103.12 68.18 102.64 67.03 102.61C66.99 102.6 66.94 102.6 66.9 102.6C66.32 102.6 65.76 102.72 65.24 102.93Z" fill="#101828" fill-opacity="1.000000" fill-rule="evenodd"/>
		<path id="Text" d="M62.57 133.7C65.04 133.7 66.99 135.16 67.38 137.64L65.61 137.64C65.32 136.14 64.07 135.3 62.59 135.3C60.59 135.3 59.09 136.85 59.09 139.68C59.09 142.52 60.59 144.05 62.59 144.05C64.06 144.05 65.31 143.23 65.61 141.75L67.38 141.75C67 144.05 65.13 145.66 62.57 145.66C59.55 145.66 57.34 143.4 57.34 139.68C57.34 135.96 59.56 133.7 62.57 133.7ZM49.11 142.42L48.05 145.5L46.18 145.5L50.37 133.86L52.4 133.86L56.59 145.5L54.72 145.5L53.66 142.42L49.11 142.42ZM51.34 135.97L49.62 140.94L53.15 140.94L51.43 135.97L51.34 135.97Z" fill="#101828" fill-opacity="1.000000" fill-rule="evenodd"/>
		<rect id="Button" rx="10.500000" width="113.000000" height="96.000000" transform="translate(0.500000 71.500000)" stroke="#E44848" stroke-opacity="1.000000" stroke-width="1.000000"/>
	</g>
	<g style="mix-blend-mode:multiply">
		<rect id="Container" rx="-0.500000" width="31.000000" height="31.000000" transform="translate(165.000000 90.000000)" fill="#FFFFFF" fill-opacity="0"/>
		<g clip-path="url(#clip3_2971)">
			<path id="Vector" d="M187.16 117.5L188.5 117.5C189.2 117.5 189.88 117.21 190.38 116.71C190.88 116.21 191.16 115.54 191.16 114.83C191.16 114.12 190.88 113.44 190.38 112.94C189.88 112.44 189.2 112.16 188.5 112.16L187.16 112.16L187.16 117.5ZM187.16 104.16L189.16 104.16C189.69 104.16 190.2 103.95 190.58 103.58C190.95 103.2 191.16 102.69 191.16 102.16C191.16 101.63 190.95 101.12 190.58 100.75C190.2 100.37 189.69 100.16 189.16 100.16L187.16 100.16L187.16 106.83M169.28 98.05C169.78 98.55 170.45 98.83 171.16 98.83C171.87 98.83 172.55 98.55 173.05 98.05C173.55 97.55 173.83 96.87 173.83 96.16C173.83 95.45 173.55 94.78 173.05 94.28C172.55 93.78 171.87 93.5 171.16 93.5C170.45 93.5 169.78 93.78 169.28 94.28C168.78 94.78 168.5 95.45 168.5 96.16C168.5 96.87 168.78 97.55 169.28 98.05Z" stroke="#101828" stroke-opacity="1.000000" stroke-width="1.800000" stroke-linejoin="round" stroke-linecap="round"/>
			<path id="Vector" d="M171.16 98.83L171.16 102.83C171.16 103.18 171.3 103.52 171.55 103.77C171.8 104.02 172.14 104.16 172.5 104.16L176.5 104.16L181.83 104.16M176.5 104.16L176.5 113.5C176.5 113.85 176.64 114.19 176.89 114.44C177.14 114.69 177.48 114.83 177.83 114.83L181.83 114.83" stroke="#101828" stroke-opacity="1.000000" stroke-width="1.800000" stroke-linejoin="round"/>
		</g>
		<path id="Text" d="M209.73 134.41C209.73 134.97 209.25 135.42 208.66 135.42C208.07 135.42 207.59 134.97 207.59 134.41C207.59 133.85 208.07 133.39 208.66 133.39C209.25 133.39 209.73 133.85 209.73 134.41ZM144.59 142.42L143.52 145.5L141.66 145.5L145.85 133.86L147.88 133.86L152.06 145.5L150.2 145.5L149.14 142.42L144.59 142.42ZM165.4 136.77L167.19 136.77L167.19 138.13L165.4 138.13L165.4 142.93C165.4 143.92 165.89 144.1 166.45 144.1C166.72 144.1 166.93 144.05 167.04 144.02L167.35 145.43C167.15 145.5 166.79 145.6 166.25 145.61C164.91 145.64 163.7 144.87 163.7 143.28L163.7 138.13L162.42 138.13L162.42 136.77L163.7 136.77L163.7 134.68L165.4 134.68L165.4 136.77ZM204.14 136.77L205.93 136.77L205.93 138.13L204.14 138.13L204.14 142.93C204.14 143.92 204.63 144.1 205.18 144.1C205.46 144.1 205.66 144.05 205.78 144.02L206.09 145.43C205.89 145.5 205.52 145.6 204.98 145.61C203.65 145.64 202.43 144.87 202.44 143.28L202.44 138.13L201.16 138.13L201.16 136.77L202.44 136.77L202.44 134.68L204.14 134.68L204.14 136.77ZM146.82 135.97L145.1 140.94L148.63 140.94L146.91 135.97L146.82 135.97ZM176.72 141.17C176.72 143.87 175.11 145.67 172.65 145.67C170.19 145.67 168.58 143.87 168.58 141.17C168.58 138.46 170.19 136.66 172.65 136.66C175.11 136.66 176.72 138.46 176.72 141.17ZM180.31 145.5L178.61 145.5L178.61 136.77L180.24 136.77L180.24 138.19L180.35 138.19C180.71 137.23 181.57 136.66 182.72 136.66C183.89 136.66 184.69 137.23 185.07 138.19L185.16 138.19C185.58 137.26 186.53 136.66 187.78 136.66C189.36 136.66 190.47 137.65 190.47 139.64L190.47 145.5L188.78 145.5L188.78 139.8C188.78 138.62 188.03 138.12 187.14 138.12C186.03 138.12 185.39 138.88 185.39 139.93L185.39 145.5L183.69 145.5L183.69 139.69C183.69 138.75 183.04 138.12 182.1 138.12C181.13 138.12 180.31 138.94 180.31 140.12L180.31 145.5ZM197.87 144.3C197.54 144.96 196.73 145.69 195.29 145.69C193.63 145.69 192.34 144.75 192.34 143.03C192.34 141.05 194.03 140.62 195.68 140.42C197.25 140.24 197.89 140.25 197.89 139.63L197.89 139.59C197.89 138.6 197.33 138.03 196.23 138.03C195.09 138.03 194.45 138.62 194.2 139.25L192.6 138.88C193.17 137.29 194.63 136.66 196.21 136.66C197.59 136.66 199.59 137.16 199.59 139.7L199.59 145.5L197.93 145.5L197.93 144.3L197.87 144.3ZM219.05 142.73C218.86 144.43 217.52 145.67 215.46 145.67C212.93 145.67 211.39 143.8 211.39 141.17C211.39 138.51 212.98 136.66 215.44 136.66C217.43 136.66 218.87 137.82 219.05 139.59L217.39 139.59C217.21 138.77 216.55 138.09 215.47 138.09C214.05 138.09 213.11 139.26 213.11 141.13C213.11 143.03 214.03 144.23 215.47 144.23C216.44 144.23 217.18 143.68 217.39 142.73L219.05 142.73ZM157.08 144.06C158.03 144.06 159.14 143.36 159.13 141.87L159.13 136.77L160.84 136.77L160.84 145.5L159.16 145.5L159.16 143.98L159.07 143.98C158.67 144.92 157.78 145.61 156.47 145.61C154.79 145.61 153.6 144.48 153.6 142.32L153.6 136.77L155.3 136.77L155.3 142.12C155.3 143.3 156.03 144.06 157.08 144.06ZM209.5 145.5L207.8 145.5L207.8 136.77L209.5 136.77L209.5 145.5ZM170.3 141.17C170.3 142.84 171.05 144.25 172.65 144.25C174.25 144.25 175 142.84 175 141.17C175 139.5 174.25 138.07 172.65 138.07C171.05 138.07 170.3 139.5 170.3 141.17ZM194 143.05C194 143.89 194.69 144.32 195.65 144.32C197.07 144.32 197.89 143.38 197.89 142.35L197.89 141.22C197.65 141.47 196.34 141.62 195.79 141.69C194.81 141.82 194 142.14 194 143.05Z" fill="#101828" fill-opacity="1.000000" fill-rule="evenodd"/>
		<rect id="Card" rx="10.500000" width="116.000000" height="96.000000" transform="translate(122.500000 71.500000)" stroke="#101828" stroke-opacity="0.200000" stroke-width="1.000000"/>
	</g>
	<g style="mix-blend-mode:multiply">
		<rect id="Container" rx="-0.500000" width="31.000000" height="31.000000" transform="translate(289.000000 90.000000)" fill="#FFFFFF" fill-opacity="0"/>
		<g clip-path="url(#clip3_2969)">
			<path id="Vector" d="M313.83 109.5L307.16 109.5C307.13 104.59 307.41 99.62 313.83 93.5L313.83 109.5L313.83 117.5L312.5 117.5L312.5 113.5M299.16 94.83L299.16 117.5M295.16 94.83L295.16 98.83C295.16 99.89 295.58 100.91 296.33 101.66C297.08 102.41 298.1 102.83 299.16 102.83C300.22 102.83 301.24 102.41 301.99 101.66C302.74 100.91 303.16 99.89 303.16 98.83L303.16 94.83" stroke="#101828" stroke-opacity="1.000000" stroke-width="1.800000" stroke-linejoin="round"/>
		</g>
		<path id="Text" d="M289.4 134.41C289.4 134.97 288.91 135.42 288.33 135.42C287.74 135.42 287.25 134.97 287.25 134.41C287.25 133.85 287.74 133.39 288.33 133.39C288.91 133.39 289.4 133.85 289.4 134.41ZM278.19 145.5L276.43 145.5L276.43 133.86L278.19 133.86L278.19 139.42L278.33 139.42L283.21 133.86L285.42 133.86L280.73 139.1L285.44 145.5L283.32 145.5L279.56 140.3L278.19 141.87L278.19 145.5ZM310.19 138.12C308.98 138.12 308.09 138.92 308.09 140.31L308.09 145.5L306.39 145.5L306.39 133.86L308.07 133.86L308.07 138.19L308.18 138.19C308.59 137.25 309.41 136.66 310.76 136.66C312.56 136.66 313.75 137.77 313.75 139.94L313.75 145.5L312.05 145.5L312.05 140.15C312.05 138.87 311.35 138.12 310.19 138.12ZM293.74 136.77L295.53 136.77L295.53 138.13L293.74 138.13L293.74 142.93C293.74 143.92 294.23 144.1 294.78 144.1C295.06 144.1 295.26 144.05 295.38 144.02L295.69 145.43C295.49 145.5 295.12 145.6 294.58 145.61C293.24 145.64 292.03 144.87 292.04 143.28L292.04 138.13L290.76 138.13L290.76 136.77L292.04 136.77L292.04 134.68L293.74 134.68L293.74 136.77ZM304.57 142.73C304.38 144.43 303.05 145.67 300.99 145.67C298.45 145.67 296.92 143.8 296.92 141.17C296.92 138.51 298.51 136.66 300.97 136.66C302.95 136.66 304.39 137.82 304.57 139.59L302.92 139.59C302.74 138.77 302.08 138.09 301 138.09C299.58 138.09 298.63 139.26 298.63 141.13C298.63 143.03 299.56 144.23 301 144.23C301.97 144.23 302.7 143.68 302.92 142.73L304.57 142.73ZM323.42 143.31C323.04 144.73 321.69 145.67 319.79 145.67C317.21 145.67 315.63 143.9 315.63 141.19C315.63 138.51 317.24 136.66 319.67 136.66C321.65 136.66 323.53 137.89 323.53 141.04L323.53 141.64L317.33 141.64C317.37 143.32 318.35 144.27 319.81 144.27C320.77 144.27 321.51 143.85 321.82 143.02L323.42 143.31ZM329.16 138.12C327.97 138.12 327.12 138.92 327.12 140.31L327.12 145.5L325.42 145.5L325.42 136.77L327.06 136.77L327.06 138.19L327.16 138.19C327.57 137.26 328.42 136.66 329.74 136.66C331.52 136.66 332.71 137.78 332.71 139.94L332.71 145.5L331.01 145.5L331.01 140.15C331.01 138.88 330.31 138.12 329.16 138.12ZM289.17 145.5L287.47 145.5L287.47 136.77L289.17 136.77L289.17 145.5ZM319.68 138.06C318.3 138.06 317.4 139.13 317.33 140.37L321.87 140.37C321.86 139.03 321 138.06 319.68 138.06Z" fill="#101828" fill-opacity="1.000000" fill-rule="evenodd"/>
		<rect id="Button" rx="10.500000" width="114.000000" height="96.000000" transform="translate(247.500000 71.500000)" stroke="#101828" stroke-opacity="0.200000" stroke-width="1.000000"/>
	</g>
	<g style="mix-blend-mode:multiply">
		<rect id="Vertical container" rx="-0.500000" width="31.000000" height="31.000000" transform="translate(41.500000 193.000000)" fill="#FFFFFF" fill-opacity="0"/>
		<g clip-path="url(#clip3_3241)">
			<path id="Vector" d="M49 218.5C46.78 218.5 45 216.71 45 214.5L45 204.5C45 202.28 46.78 200.5 49 200.5L65 200.5C67.21 200.5 69 202.28 69 204.5L69 214.5C69 216.71 67.21 218.5 65 218.5L49 218.5Z" stroke="#101828" stroke-opacity="1.000000" stroke-width="1.800000" stroke-linejoin="round"/>
			<path id="Vector" d="M53 222.5L61 222.5" stroke="#101828" stroke-opacity="1.000000" stroke-width="1.800000" stroke-linejoin="round" stroke-linecap="round"/>
			<path id="Vector" d="M57 200.5L63 194.5" stroke="#101828" stroke-opacity="1.000000" stroke-width="1.800000" stroke-linejoin="round" stroke-linecap="round"/>
			<path id="Vector" d="M57 200.5L51 194.5" stroke="#101828" stroke-opacity="1.000000" stroke-width="1.800000" stroke-linejoin="round" stroke-linecap="round"/>
		</g>
		<path id="Text" d="M50.52 238.37L46.89 238.37L46.89 236.86L55.9 236.86L55.9 238.37L52.27 238.37L52.27 248.5L50.52 248.5L50.52 238.37ZM57 236.86L58.9 236.86L62.14 246.34L62.27 246.34L65.51 236.86L67.4 236.86L63.22 248.5L61.19 248.5L57 236.86Z" fill="#101828" fill-opacity="1.000000" fill-rule="evenodd"/>
		<rect id="Card" rx="10.500000" width="113.000000" height="96.000000" transform="translate(0.500000 174.500000)" stroke="#101828" stroke-opacity="0.200000" stroke-width="1.000000"/>
	</g>
	<g style="mix-blend-mode:multiply">
		<rect id="Rating" rx="-0.500000" width="31.000000" height="31.000000" transform="translate(164.500000 193.000000)" fill="#FFFFFF" fill-opacity="0"/>
		<g clip-path="url(#clip3_3383)">
			<path id="Vector" d="M169.33 197.83L172.66 201.16M182 201.16C180.75 199.95 179.08 199.27 177.34 199.28C175.6 199.28 173.94 199.98 172.71 201.21C171.48 202.44 170.78 204.1 170.78 205.84C170.77 207.58 171.44 209.25 172.66 210.5M184 199.16L170.66 212.5M182.66 215.16L182.66 215.18M177.33 213.83L177.33 213.84M181.33 209.83L181.33 209.84M185.33 205.83L185.33 205.84M178.66 219.16L178.66 219.18M186.66 211.16L186.66 211.18M190.66 207.16L190.66 207.18" stroke="#101828" stroke-opacity="1.000000" stroke-width="2.000000" stroke-linejoin="round"/>
		</g>
		<path id="Text" d="M196.8 236.31L198.31 236.31L194.56 250.25L193.05 250.25L196.8 236.31ZM144.81 239.92L143.12 239.92C142.99 238.84 142.04 238.22 140.71 238.22C139.28 238.22 138.37 238.95 138.37 239.94C138.37 241.05 139.58 241.48 140.49 241.71L141.62 242.01C143.1 242.37 144.97 243.18 144.97 245.28C144.97 247.25 143.39 248.69 140.66 248.69C138.06 248.69 136.43 247.39 136.31 245.28L138.07 245.28C138.18 246.55 139.3 247.15 140.65 247.15C142.14 247.15 143.23 246.4 143.23 245.26C143.23 244.23 142.27 243.82 141.03 243.49L139.65 243.12C137.78 242.61 136.62 241.66 136.62 240.04C136.62 238.03 138.41 236.7 140.75 236.7C143.11 236.7 144.76 238.05 144.81 239.92ZM219.87 236.7C222.33 236.7 224.28 238.16 224.67 240.64L222.9 240.64C222.61 239.14 221.37 238.3 219.88 238.3C217.88 238.3 216.38 239.85 216.38 242.68C216.38 245.52 217.88 247.05 219.88 247.05C221.35 247.05 222.6 246.23 222.9 244.75L224.67 244.75C224.29 247.05 222.42 248.66 219.87 248.66C216.84 248.66 214.63 246.4 214.63 242.68C214.63 238.96 216.86 236.7 219.87 236.7ZM150.72 241.12C149.51 241.12 148.63 241.92 148.63 243.31L148.63 248.5L146.93 248.5L146.93 236.86L148.6 236.86L148.6 241.19L148.71 241.19C149.12 240.25 149.94 239.66 151.3 239.66C153.1 239.66 154.29 240.77 154.29 242.94L154.29 248.5L152.59 248.5L152.59 243.15C152.59 241.87 151.89 241.12 150.72 241.12ZM203.99 248.5L202.22 248.5L198.99 236.86L200.84 236.86L203.1 245.87L203.21 245.87L205.57 236.86L207.4 236.86L209.76 245.87L209.87 245.87L212.13 236.86L213.98 236.86L210.75 248.5L208.98 248.5L206.53 239.78L206.44 239.78L203.99 248.5ZM189.96 248.5L188.26 248.5L188.26 239.77L189.9 239.77L189.9 241.16L189.99 241.16C190.31 240.22 191.18 239.64 192.21 239.64C192.43 239.64 192.76 239.66 192.93 239.68L192.93 241.3C192.79 241.26 192.4 241.2 192.04 241.2C190.84 241.2 189.96 242.02 189.96 243.17L189.96 248.5ZM164.31 244.17C164.31 246.87 162.7 248.67 160.24 248.67C157.78 248.67 156.17 246.87 156.17 244.17C156.17 241.46 157.78 239.66 160.24 239.66C162.7 239.66 164.31 241.46 164.31 244.17ZM186.26 246.31C185.87 247.73 184.53 248.67 182.62 248.67C180.05 248.67 178.47 246.9 178.47 244.19C178.47 241.51 180.07 239.66 182.51 239.66C184.48 239.66 186.37 240.89 186.37 244.04L186.37 244.64L180.16 244.64C180.21 246.32 181.18 247.27 182.64 247.27C183.61 247.27 184.34 246.85 184.65 246.02L186.26 246.31ZM169.55 248.5L167.82 248.5L165.25 239.77L167.01 239.77L168.72 246.18L168.8 246.18L170.52 239.77L172.28 239.77L173.98 246.15L174.07 246.15L175.76 239.77L177.52 239.77L174.96 248.5L173.23 248.5L171.45 242.19L171.32 242.19L169.55 248.5ZM182.52 241.06C181.13 241.06 180.24 242.13 180.17 243.37L184.7 243.37C184.7 242.03 183.83 241.06 182.52 241.06ZM157.88 244.17C157.88 245.84 158.63 247.25 160.24 247.25C161.84 247.25 162.59 245.84 162.59 244.17C162.59 242.5 161.84 241.07 160.24 241.07C158.63 241.07 157.88 242.5 157.88 244.17Z" fill="#101828" fill-opacity="1.000000" fill-rule="evenodd"/>
		<rect id="Card" rx="10.500000" width="115.000000" height="96.000000" transform="translate(122.500000 174.500000)" stroke="#101828" stroke-opacity="0.200000" stroke-width="1.000000"/>
	</g>
</symbol>




<symbol id="icon-wind" viewBox="0 0 32 32">
<path d="M15.646 2.286c-1.072 0-2.111 0.366-2.94 1.035s-1.398 1.601-1.608 2.636l-0.083 0.411c-0.022 0.092-0.025 0.187-0.009 0.28s0.051 0.182 0.103 0.261c0.052 0.079 0.119 0.148 0.198 0.201s0.168 0.090 0.262 0.109c0.094 0.019 0.191 0.018 0.285-0.001s0.183-0.057 0.262-0.11 0.146-0.122 0.197-0.202c0.051-0.080 0.086-0.169 0.101-0.262l0.084-0.409c0.158-0.768 0.6-1.45 1.24-1.915s1.433-0.68 2.224-0.602c0.792 0.077 1.526 0.441 2.060 1.021s0.832 1.334 0.834 2.118c0 0.84-0.339 1.645-0.941 2.238s-1.42 0.928-2.273 0.928h-10.357c-0.189 0-0.371 0.074-0.505 0.206s-0.209 0.311-0.209 0.497c0 0.187 0.075 0.365 0.209 0.497s0.316 0.206 0.505 0.206h10.357c1.211-0.029 2.363-0.524 3.21-1.377s1.32-2 1.321-3.193-0.473-2.339-1.319-3.194c-0.846-0.854-1.997-1.349-3.209-1.379zM23.857 8.615c-0.947 0-1.856 0.37-2.525 1.030s-1.046 1.554-1.046 2.487c0 0.187 0.075 0.365 0.209 0.497s0.316 0.206 0.505 0.206 0.371-0.074 0.505-0.206c0.134-0.132 0.209-0.311 0.209-0.497 0-0.417 0.126-0.825 0.361-1.172s0.57-0.617 0.962-0.777c0.392-0.16 0.822-0.201 1.238-0.12s0.797 0.282 1.097 0.577c0.3 0.295 0.504 0.671 0.587 1.080s0.040 0.834-0.122 1.219-0.437 0.715-0.789 0.947c-0.352 0.232-0.767 0.356-1.191 0.356h-18.571c-0.189 0-0.371 0.074-0.505 0.206s-0.209 0.311-0.209 0.497c0 0.187 0.075 0.366 0.209 0.497s0.316 0.206 0.505 0.206h13.929c0.474 0.001 0.927 0.187 1.262 0.518s0.521 0.778 0.521 1.244c-0.001 0.466-0.19 0.913-0.526 1.242s-0.79 0.513-1.264 0.512c-0.427 0-0.84-0.148-1.166-0.419s-0.544-0.647-0.616-1.061l-0.007-0.042c-0.013-0.093-0.045-0.183-0.093-0.264s-0.113-0.152-0.19-0.207-0.165-0.096-0.258-0.118c-0.093-0.022-0.189-0.025-0.284-0.010s-0.185 0.049-0.265 0.1c-0.081 0.050-0.15 0.116-0.205 0.194s-0.092 0.165-0.112 0.257c-0.019 0.092-0.020 0.187-0.002 0.28l0.007 0.042c0.127 0.742 0.517 1.417 1.101 1.903s1.324 0.753 2.089 0.753c0.853 0 1.672-0.333 2.276-0.926s0.944-1.398 0.946-2.239c0-0.651-0.2-1.256-0.541-1.758h1.97c0.947 0 1.856-0.37 2.525-1.030s1.046-1.554 1.046-2.487-0.376-1.827-1.046-2.487c-0.67-0.659-1.578-1.030-2.525-1.030z"></path>
<path d="M15.646 2.286l0.141-5.713-0.071-0.002h-0.071l0.001 5.714zM11.097 5.957l-5.6-1.139-0.002 0.009 5.601 1.13zM11.014 6.368l5.557 1.332 0.024-0.101 0.021-0.101-5.601-1.13zM12.414 6.643l-5.597-1.152-0.022 0.105-0.018 0.106 5.636 0.941zM12.498 6.234v0zM18.857 6.856h5.714v-0.014l-5.714 0.014zM15.643 10.022v5.714h0.002l-0.002-5.714zM4.571 10.725v0zM15.643 11.429v5.714h0.069l0.069-0.002-0.138-5.713zM21.714 12.132v0zM4.571 14.945v0zM19.214 15.648l0.011-5.714h-0.011v5.714zM19.207 19.165l0.011-5.714h-0.015l0.004 5.714zM17.426 17.685l-5.634 0.954 0.002 0.010 0.002 0.010 5.631-0.973zM17.419 17.643l-5.661 0.779 0.012 0.088 0.015 0.087 5.634-0.954zM16.010 17.874l5.634-0.954-0.014-0.085-0.017-0.085-5.603 1.124zM16.017 17.916l-5.634 0.954 0.002 0.010 5.632-0.963zM19.207 20.571l0.003-5.714h-0.004l0.001 5.714zM22.429 17.407l5.714 0.010v-0.010h-5.714zM21.887 15.648v-5.714h-10.795l6.070 8.927 4.726-3.213zM15.644-3.429c-2.369 0.001-4.676 0.808-6.528 2.303l7.178 8.893c-0.194 0.156-0.423 0.232-0.647 0.232l-0.002-11.429zM9.116-1.126c-1.854 1.496-3.14 3.593-3.619 5.943l11.199 2.279c-0.057 0.28-0.207 0.514-0.402 0.671l-7.178-8.893zM5.496 4.827l-0.083 0.411 11.203 2.26 0.083-0.411-11.203-2.26zM5.457 5.035c-0.204 0.849-0.231 1.73-0.082 2.591l11.26-1.957c0.117 0.674 0.095 1.365-0.064 2.030l-11.114-2.664zM5.376 7.626c0.15 0.86 0.473 1.678 0.946 2.404l9.573-6.243c0.37 0.567 0.623 1.207 0.74 1.881l-11.26 1.957zM6.322 10.031c0.473 0.726 1.087 1.345 1.799 1.823l6.373-9.487c0.554 0.372 1.032 0.854 1.402 1.421l-9.573 6.243zM8.121 11.854c0.712 0.478 1.51 0.807 2.345 0.972l2.208-11.213c0.647 0.127 1.266 0.383 1.82 0.755l-6.373 9.487zM10.465 12.825c0.835 0.164 1.695 0.162 2.529-0.008l-2.28-11.199c0.646-0.132 1.312-0.134 1.959-0.006l-2.208 11.213zM12.994 12.817c0.834-0.17 1.63-0.504 2.339-0.987l-6.434-9.445c0.551-0.375 1.169-0.635 1.815-0.766l2.28 11.199zM15.333 11.83c0.709-0.483 1.318-1.106 1.787-1.835l-9.614-6.18c0.366-0.57 0.841-1.055 1.393-1.431l6.434 9.445zM17.12 9.995c0.469-0.73 0.787-1.549 0.931-2.411l-11.272-1.883c0.113-0.675 0.362-1.317 0.728-1.887l9.614 6.18zM18.011 7.796l0.084-0.409-11.194-2.305-0.084 0.409 11.194 2.305zM18.095 7.389c-0.132 0.642-0.497 1.19-0.997 1.554l-6.718-9.246c-1.78 1.293-3.029 3.207-3.478 5.383l11.193 2.309zM17.098 8.942c-0.497 0.361-1.099 0.52-1.691 0.462l1.112-11.374c-2.175-0.213-4.361 0.375-6.139 1.666l6.718 9.246zM15.407 9.404c-0.592-0.058-1.159-0.331-1.585-0.793l8.402-7.747c-1.494-1.621-3.53-2.622-5.706-2.835l-1.112 11.374zM13.822 8.612c-0.427-0.464-0.678-1.083-0.68-1.742l11.429-0.028c-0.006-2.225-0.85-4.354-2.347-5.977l-8.402 7.747zM13.143 6.856c0-0.704 0.285-1.362 0.763-1.833l8.020 8.142c1.683-1.658 2.646-3.926 2.646-6.309h-11.429zM13.906 5.023c0.475-0.468 1.1-0.715 1.735-0.715l0.005 11.429c2.339-0.001 4.6-0.916 6.28-2.571l-8.020-8.142zM15.643 4.308h-10.357v11.429h10.357v-11.429zM5.286 4.308c-1.677 0-3.302 0.655-4.514 1.848l8.018 8.144c-0.944 0.93-2.206 1.436-3.504 1.436v-11.429zM0.771 6.156c-1.215 1.196-1.914 2.838-1.914 4.569h11.429c0 1.358-0.549 2.642-1.496 3.575l-8.018-8.144zM-1.143 10.725c0 1.731 0.699 3.373 1.914 4.569l8.018-8.144c0.947 0.933 1.496 2.217 1.496 3.575h-11.429zM0.771 15.294c1.212 1.193 2.838 1.848 4.514 1.848v-11.429c1.298 0 2.56 0.507 3.504 1.436l-8.018 8.144zM5.286 17.143h10.357v-11.429h-10.357v11.429zM15.781 17.141c2.674-0.064 5.235-1.155 7.13-3.067l-8.116-8.046c0.202-0.204 0.459-0.306 0.71-0.312l0.276 11.425zM22.911 14.074c1.898-1.914 2.976-4.502 2.977-7.214l-11.429-0.004c0-0.326 0.13-0.622 0.335-0.829l8.116 8.046zM25.888 6.86c0.001-2.712-1.076-5.3-2.972-7.216l-8.121 8.041c-0.205-0.207-0.335-0.503-0.335-0.829l11.429 0.004zM22.915-0.356c-1.894-1.913-4.454-3.005-7.128-3.071l-0.283 11.425c-0.252-0.006-0.508-0.109-0.71-0.313l8.121-8.041zM23.857 2.901c-2.434 0-4.787 0.951-6.535 2.672l8.018 8.144c-0.408 0.402-0.944 0.613-1.484 0.613v-11.429zM17.323 5.574c-1.751 1.724-2.751 4.081-2.751 6.558h11.429c0 0.612-0.248 1.18-0.659 1.585l-8.018-8.144zM14.571 12.132c0 1.731 0.699 3.373 1.914 4.569l8.018-8.144c0.947 0.933 1.496 2.217 1.496 3.575h-11.429zM16.486 16.701c1.212 1.194 2.838 1.848 4.514 1.848v-11.429c1.298 0 2.56 0.507 3.504 1.436l-8.018 8.144zM21 18.549c1.677 0 3.302-0.655 4.514-1.848l-8.018-8.144c0.944-0.93 2.206-1.436 3.504-1.436v11.429zM25.514 16.701c1.215-1.197 1.914-2.838 1.914-4.569h-11.429c0-1.358 0.549-2.642 1.496-3.575l8.018 8.144zM27.429 12.132c0 0.733-0.221 1.442-0.625 2.037l-9.457-6.418c-0.875 1.289-1.347 2.814-1.347 4.381h11.429zM26.804 14.168c-0.403 0.594-0.966 1.043-1.609 1.305l-4.316-10.582c-1.426 0.581-2.658 1.572-3.532 2.86l9.457 6.418zM25.195 15.474c-0.642 0.262-1.343 0.329-2.018 0.197l2.197-11.216c-1.507-0.295-3.070-0.144-4.494 0.437l4.316 10.582zM23.177 15.67c-0.676-0.132-1.309-0.461-1.814-0.959l8.018-8.144c-1.104-1.087-2.501-1.818-4.008-2.113l-2.197 11.216zM21.363 14.712c-0.506-0.498-0.861-1.144-1.006-1.86l11.202-2.263c-0.31-1.535-1.073-2.932-2.178-4.021l-8.018 8.144zM20.358 12.852c-0.145-0.717-0.070-1.459 0.212-2.128l10.534 4.432c0.606-1.441 0.766-3.031 0.456-4.566l-11.202 2.263zM20.57 10.723c0.281-0.669 0.751-1.226 1.337-1.611l6.281 9.548c1.291-0.849 2.31-2.065 2.916-3.505l-10.534-4.432zM21.907 9.112c0.585-0.385 1.263-0.585 1.95-0.585v11.429c1.534 0 3.041-0.448 4.331-1.296l-6.281-9.548zM23.857 8.527h-18.571v11.429h18.571v-11.429zM5.286 8.527c-1.677 0-3.302 0.655-4.514 1.848l8.018 8.144c-0.944 0.93-2.206 1.436-3.504 1.436v-11.429zM0.771 10.376c-1.215 1.196-1.914 2.838-1.914 4.569h11.429c0 1.358-0.549 2.642-1.496 3.575l-8.018-8.144zM-1.143 14.945c0 1.731 0.699 3.373 1.914 4.569l8.018-8.144c0.947 0.933 1.496 2.217 1.496 3.574h-11.429zM0.771 19.514c1.212 1.194 2.838 1.848 4.514 1.848v-11.429c1.298 0 2.56 0.507 3.504 1.436l-8.018 8.144zM5.286 21.363h13.929v-11.429h-13.929v11.429zM19.203 21.363c-1.014-0.002-2.003-0.4-2.744-1.133l8.035-8.128c-1.41-1.394-3.307-2.164-5.268-2.168l-0.022 11.429zM16.459 20.23c-0.745-0.736-1.179-1.753-1.176-2.831l11.429 0.023c0.004-2.011-0.804-3.922-2.218-5.32l-8.035 8.128zM15.282 17.398c0.002-1.078 0.44-2.093 1.188-2.826l8.002 8.16c1.419-1.391 2.235-3.3 2.239-5.31l-11.429-0.023zM16.47 14.573c0.745-0.73 1.735-1.124 2.749-1.122l-0.023 11.429c1.961 0.004 3.86-0.759 5.276-2.147l-8.002-8.16zM19.203 13.451c0.899-0.001 1.782 0.312 2.49 0.9l-7.302 8.791c1.36 1.13 3.069 1.739 4.821 1.738l-0.008-11.429zM21.693 14.35c0.71 0.59 1.202 1.423 1.364 2.362l-11.262 1.946c0.305 1.767 1.233 3.352 2.595 4.483l7.302-8.791zM23.060 16.731l-0.007-0.042-11.268 1.907 0.007 0.042 11.268-1.907zM23.080 16.864c-0.119-0.863-0.412-1.69-0.858-2.432l-9.792 5.893c-0.349-0.58-0.578-1.227-0.672-1.903l11.322-1.558zM22.221 14.432c-0.446-0.741-1.035-1.381-1.728-1.884l-6.717 9.246c-0.539-0.391-0.998-0.89-1.347-1.469l9.792-5.893zM20.493 12.548c-0.693-0.503-1.476-0.861-2.303-1.056l-2.627 11.123c-0.641-0.151-1.249-0.429-1.788-0.82l6.717-9.246zM18.191 11.492c-0.826-0.195-1.683-0.225-2.521-0.088l1.847 11.278c-0.649 0.106-1.313 0.083-1.953-0.068l2.627-11.123zM15.67 11.404c-0.838 0.137-1.643 0.439-2.368 0.892l6.052 9.695c-0.563 0.352-1.188 0.586-1.837 0.692l-1.847-11.278zM13.302 12.296c-0.725 0.453-1.357 1.048-1.853 1.754l9.349 6.573c-0.388 0.552-0.88 1.015-1.444 1.367l-6.052-9.695zM11.449 14.050c-0.497 0.707-0.848 1.509-1.028 2.361l11.181 2.364c-0.141 0.667-0.416 1.295-0.804 1.847l-9.349-6.573zM10.421 16.412c-0.18 0.852-0.185 1.732-0.014 2.585l11.205-2.247c0.134 0.669 0.131 1.359-0.011 2.026l-11.181-2.364zM10.376 18.827l0.007 0.042 11.268-1.907-0.007-0.042-11.268 1.907zM10.385 18.879c0.359 2.097 1.457 3.982 3.078 5.331l7.312-8.783c0.452 0.376 0.771 0.913 0.875 1.525l-11.265 1.927zM13.462 24.21c1.618 1.347 3.654 2.076 5.746 2.075l-0.002-11.429c0.562-0 1.118 0.195 1.568 0.57l-7.312 8.783zM19.205 26.286c2.339 0.001 4.6-0.911 6.283-2.564l-8.009-8.153c0.474-0.466 1.099-0.712 1.731-0.712l-0.005 11.429zM25.488 23.722c1.686-1.656 2.651-3.922 2.655-6.305l-11.429-0.021c0.001-0.703 0.287-1.358 0.764-1.827l8.009 8.153zM28.143 17.407c0-1.84-0.569-3.558-1.53-4.971l-9.451 6.426c-0.278-0.409-0.447-0.917-0.447-1.455h11.429zM21.887 21.363h1.97v-11.429h-1.97v11.429zM23.857 21.363c2.434 0 4.787-0.951 6.535-2.672l-8.018-8.144c0.408-0.402 0.944-0.613 1.484-0.613v11.429zM30.392 18.69c1.751-1.724 2.751-4.081 2.751-6.558h-11.429c0-0.612 0.248-1.18 0.659-1.585l8.018 8.144zM33.143 12.132c0-2.477-1-4.834-2.751-6.558l-8.018 8.144c-0.411-0.405-0.659-0.974-0.659-1.585h11.429zM30.392 5.574c-1.748-1.721-4.1-2.672-6.535-2.672v11.429c-0.54 0-1.075-0.21-1.484-0.613l8.018-8.144z"></path>
</symbol>

<symbol id="icon-facebook" viewBox="0 0 32 32">
<path d="M19 6h5v-6h-5c-3.86 0-7 3.14-7 7v3h-4v6h4v16h6v-16h5l1-6h-6v-3c0-0.542 0.458-1 1-1z"></path>
</symbol>

<symbol id="icon-instagram" viewBox="0 0 32 32">
<path d="M16 2.881c4.275 0 4.781 0.019 6.462 0.094 1.563 0.069 2.406 0.331 2.969 0.55 0.744 0.288 1.281 0.638 1.837 1.194 0.563 0.563 0.906 1.094 1.2 1.838 0.219 0.563 0.481 1.412 0.55 2.969 0.075 1.688 0.094 2.194 0.094 6.463s-0.019 4.781-0.094 6.463c-0.069 1.563-0.331 2.406-0.55 2.969-0.288 0.744-0.637 1.281-1.194 1.837-0.563 0.563-1.094 0.906-1.837 1.2-0.563 0.219-1.413 0.481-2.969 0.55-1.688 0.075-2.194 0.094-6.463 0.094s-4.781-0.019-6.463-0.094c-1.563-0.069-2.406-0.331-2.969-0.55-0.744-0.288-1.281-0.637-1.838-1.194-0.563-0.563-0.906-1.094-1.2-1.837-0.219-0.563-0.481-1.413-0.55-2.969-0.075-1.688-0.094-2.194-0.094-6.463s0.019-4.781 0.094-6.463c0.069-1.563 0.331-2.406 0.55-2.969 0.288-0.744 0.638-1.281 1.194-1.838 0.563-0.563 1.094-0.906 1.838-1.2 0.563-0.219 1.412-0.481 2.969-0.55 1.681-0.075 2.188-0.094 6.463-0.094zM16 0c-4.344 0-4.887 0.019-6.594 0.094-1.7 0.075-2.869 0.35-3.881 0.744-1.056 0.412-1.95 0.956-2.837 1.85-0.894 0.888-1.438 1.781-1.85 2.831-0.394 1.019-0.669 2.181-0.744 3.881-0.075 1.713-0.094 2.256-0.094 6.6s0.019 4.887 0.094 6.594c0.075 1.7 0.35 2.869 0.744 3.881 0.413 1.056 0.956 1.95 1.85 2.837 0.887 0.887 1.781 1.438 2.831 1.844 1.019 0.394 2.181 0.669 3.881 0.744 1.706 0.075 2.25 0.094 6.594 0.094s4.888-0.019 6.594-0.094c1.7-0.075 2.869-0.35 3.881-0.744 1.050-0.406 1.944-0.956 2.831-1.844s1.438-1.781 1.844-2.831c0.394-1.019 0.669-2.181 0.744-3.881 0.075-1.706 0.094-2.25 0.094-6.594s-0.019-4.887-0.094-6.594c-0.075-1.7-0.35-2.869-0.744-3.881-0.394-1.063-0.938-1.956-1.831-2.844-0.887-0.887-1.781-1.438-2.831-1.844-1.019-0.394-2.181-0.669-3.881-0.744-1.712-0.081-2.256-0.1-6.6-0.1v0z"></path>
<path d="M16 7.781c-4.537 0-8.219 3.681-8.219 8.219s3.681 8.219 8.219 8.219 8.219-3.681 8.219-8.219c0-4.537-3.681-8.219-8.219-8.219zM16 21.331c-2.944 0-5.331-2.387-5.331-5.331s2.387-5.331 5.331-5.331c2.944 0 5.331 2.387 5.331 5.331s-2.387 5.331-5.331 5.331z"></path>
<path d="M26.462 7.456c0 1.060-0.859 1.919-1.919 1.919s-1.919-0.859-1.919-1.919c0-1.060 0.859-1.919 1.919-1.919s1.919 0.859 1.919 1.919z"></path>
</symbol>

<symbol id="icon-linkedin" viewBox="0 0 32 32">
<path d="M12 12h5.535v2.837h0.079c0.77-1.381 2.655-2.837 5.464-2.837 5.842 0 6.922 3.637 6.922 8.367v9.633h-5.769v-8.54c0-2.037-0.042-4.657-3.001-4.657-3.005 0-3.463 2.218-3.463 4.509v8.688h-5.767v-18z"></path>
<path d="M2 12h6v18h-6v-18z"></path>
<path d="M8 7c0 1.657-1.343 3-3 3s-3-1.343-3-3c0-1.657 1.343-3 3-3s3 1.343 3 3z"></path>
</symbol>

<symbol id="icon-emeil" viewBox="0 0 20 20">
<path d="M18 2c1.105 0 2 0.895 2 2v0 12c0 1.105-0.895 2-2 2v0h-16c-1.105 0-2-0.895-2-2v0-12c0-1.1 0.9-2 2-2h16zM13.63 11.1l6.37 4.9v-2l-5.12-3.9 5.12-4.1v-2l-10 8-10-8v2l5.12 4.1-5.12 3.9v2l6.37-4.9 3.63 2.9 3.63-2.9z"></path>
</symbol>
 



<symbol id="icon-phone" viewBox="0 0 20 20">
<path d="M20 18.35v0.65c0 0.552-0.448 1-1 1v0h-2c-9.389 0-17-7.611-17-17v0-2c0-0.552 0.448-1 1-1v0h4c0.552 0 1 0.448 1 1v0 4c0 0.56-0.31 1.31-0.7 1.7l-2.14 2.14c1.52 3.6 4.4 6.48 8 8l2.12-2.12c0.4-0.4 1.15-0.71 1.7-0.71h4.020c0.548 0.006 0.99 0.451 0.99 1 0 0 0 0 0 0v0 3.35z"></path>
</symbol>

</defs>
</svg>
